<svg width="48" height="56" viewBox="0 0 48 56" fill="none" xmlns="http://www.w3.org/2000/svg">
<g id="&#230;&#179;&#149;&#229;&#190;&#189;">
<mask id="mask0_956_237270" style="mask-type:alpha" maskUnits="userSpaceOnUse" x="0" y="0" width="48" height="56">
<path id="Clip 2" fill-rule="evenodd" clip-rule="evenodd" d="M0 0H48V55.3485H0V0Z" fill="white"/>
</mask>
<g mask="url(#mask0_956_237270)">
<path id="Fill 1" fill-rule="evenodd" clip-rule="evenodd" d="M24 35.0783C25.5398 35.0783 26.7879 36.3282 26.7879 37.87C26.7879 39.4119 25.5398 40.6618 24 40.6618C22.4602 40.6618 21.2121 39.4119 21.2121 37.87C21.2121 37.1297 21.506 36.4195 22.0288 35.8961C22.5515 35.3726 23.2607 35.0783 24 35.0783V35.0783ZM24.0607 41.7542C25.6539 41.7542 27.0905 40.7931 27.7003 39.319C28.31 37.8448 27.9728 36.1481 26.8463 35.0201C25.7195 33.8918 24.0251 33.5543 22.553 34.165C21.0811 34.7756 20.1212 36.2138 20.1212 37.8095C20.1212 39.988 21.8848 41.7542 24.0607 41.7542V41.7542ZM18.788 37.8095C18.788 34.8934 21.1485 32.5293 24.0607 32.5293C26.9726 32.5293 29.3333 34.8934 29.3333 37.8095C29.3333 40.7254 26.9726 43.0894 24.0607 43.0894C21.1485 43.0894 18.788 40.7254 18.788 37.8095V37.8095ZM39.4062 8.24958C39.1605 8.05422 38.9435 8.13438 39.0432 8.24958C43.1305 12.3401 43.5281 14.2495 44.607 16.8554C44.6714 16.8858 44.8641 16.8911 44.8494 16.7342C43.5535 12.3097 40.4338 9.0668 39.4062 8.24928V8.24958ZM37.2289 8.00711C36.9836 7.81145 36.7665 7.89161 36.8663 8.00711C40.9535 12.0973 42.2739 14.8852 43.3978 17.7033C43.4619 17.7338 43.6547 17.739 43.6402 17.5821C42.223 12.9762 38.2566 8.82491 37.2286 8.00681L37.2289 8.00711ZM34.5682 7.88553C39.7741 12.128 40.9711 15.5216 41.3413 16.0058C41.5112 16.2486 41.5985 16.0414 41.5837 15.8846C39.3664 10.9553 35.9597 8.70305 34.9314 7.88465C34.6849 7.69018 34.4679 7.77033 34.5676 7.88553H34.5682ZM34.3257 10.9157C38.2774 14.4914 39.3077 17.8093 39.5267 17.9459C39.5909 17.9759 39.6628 17.9811 39.6481 17.8243C38.3074 14.259 35.7169 11.7338 34.689 10.9157C34.4431 10.7204 34.226 10.8006 34.3257 10.9157V10.9157ZM31.8788 15.2936H26.4244L26.303 19.1778L26.5455 19.4206C28.6173 16.7116 32.1265 17.9016 35.7577 17.2357C35.99 16.8369 36.0958 16.709 36.1212 16.022L36.0002 15.7792C35.6221 15.535 35.4511 15.3338 34.9092 15.5364C34.4939 15.787 34.476 15.8895 34.4243 16.5076C32.7371 16.8146 32.8391 15.6684 31.8788 15.2936V15.2936ZM32.3637 6.79717H31.8788C31.7375 7.10069 31.8788 7.36376 31.8788 7.64676C31.6331 7.81204 31.3818 7.96858 31.1248 8.11556C30.8543 8.27069 30.5102 8.09045 30.0607 8.25366C29.6608 8.39945 29.6651 8.82662 29.3571 8.93256C29.1441 9.00516 28.9409 8.93108 28.7273 8.98205C28.5673 9.0202 28.3958 9.18837 28.2378 9.21148C27.5823 9.30587 26.9535 9.25808 26.4244 8.98205C25.9241 8.53954 26.0547 7.66558 26.1819 6.91867H26.7879L26.9093 6.6759L26.7879 6.31155H26.1819C26.3348 5.56724 26.6475 5.64969 27.1515 5.34061L27.0303 4.97657C26.7139 4.50199 26.0149 4.56592 25.2123 4.61222C25.1574 3.15433 24.8627 2.54225 25.3334 1.45648L25.2123 1.33521H23.7575C23.2607 2.17991 22.9544 3.41592 22.788 4.61222H21.091L20.9696 5.34061C21.2705 5.62917 21.3387 5.66362 21.9395 5.70466C21.7626 6.39749 21.6308 6.18798 21.2121 6.55433V6.91867H21.9395V8.7392C19.8503 8.74298 18.5559 7.42399 16.3637 7.88961C15.8954 8.53754 15.2693 10.1349 15.5152 10.9241C16.3963 12.3471 19.9151 12.3774 21.9395 12.6234V31.6797H22.6666C22.7071 31.3157 22.788 30.466 22.788 30.466H25.3334V31.6797H26.0608V13.1087C26.6012 12.9493 26.7844 12.9736 27.1515 12.8662C27.4509 12.7785 28.1282 12.2932 28.3901 12.1491C28.7401 11.9567 29.14 11.8739 29.4547 11.6522C29.7752 11.4265 30.0105 11.061 30.3015 10.8067C30.6564 10.4967 30.7676 10.2209 31.1014 9.83171C31.1662 9.75614 31.2098 9.54197 31.2731 9.46759C31.3482 9.37906 31.6852 9.30994 31.758 9.22482C32.0609 8.87203 32.3169 8.63852 32.6065 8.25395L32.7276 7.03994L32.3637 6.79717ZM13.5757 16.5076V15.7792C13.0968 15.4797 12.9333 15.4137 12.2423 15.5364C12.0637 15.8981 11.9897 16.2283 12.0001 16.8717C13.5295 17.8492 15.3455 16.7903 17.6971 17.2357C19.3848 17.5551 20.4988 18.6016 21.697 19.4206V15.4152L21.5759 15.2936H17.0911C15.8796 15.8799 15.0776 16.6998 13.5757 16.5076V16.5076ZM13.3333 10.9241C12.303 11.7434 9.70698 14.2721 8.36376 17.8425C8.34844 17.9994 8.42035 17.9945 8.48487 17.9641C8.70474 17.8275 9.73731 14.5048 13.6971 10.9241C13.7971 10.8084 13.5795 10.7285 13.3333 10.9241V10.9241ZM13.0908 9.46759C12.0606 10.2869 8.07071 13.9888 6.90927 18.3281C6.89395 18.485 7.08727 18.4798 7.15141 18.4494C8.08085 15.84 9.49487 13.0482 13.4546 9.46759C13.5546 9.35187 13.337 9.27171 13.0908 9.46759V9.46759ZM13.0908 7.88961C12.0606 8.70882 8.64637 10.9644 6.42432 15.9004C6.409 16.0573 6.4963 16.2648 6.66676 16.022C7.03785 15.5364 8.23747 12.1378 13.4546 7.88961C13.5546 7.77411 13.337 7.69395 13.0908 7.88961V7.88961ZM10.7878 8.01081C9.75758 8.8304 5.78274 12.9875 4.36347 17.5997C4.34845 17.7566 4.54184 17.7517 4.60598 17.7213C5.73243 14.8992 7.05546 12.1074 11.1516 8.01081C11.2517 7.89568 11.0341 7.81523 10.7878 8.01081V8.01081ZM8.6062 8.25366C7.57563 9.07287 4.44936 12.3198 3.15149 16.7501C3.13647 16.9069 3.32949 16.902 3.39393 16.8717C4.47474 14.2619 4.87358 12.3503 8.96975 8.25366C9.06977 8.13816 8.85211 8.058 8.6062 8.25366V8.25366ZM3.15149 21.2411L3.51504 21.484C3.95686 20.7949 3.76821 20.3365 3.63637 19.4206H3.75748L3.99992 20.1487L4.24243 20.2702C4.91256 19.2452 4.03203 17.5575 2.66654 17.2357C2.50326 18.8418 2.7636 20.0422 3.15149 21.2411V21.2411ZM2.90898 24.7613L3.39393 24.8825C3.58984 23.9637 3.43758 23.7877 3.15149 22.9404L3.75748 23.5473L4.24243 22.9404C3.7526 21.9872 3.02054 21.117 1.93944 20.7559C1.71402 22.5368 2.43853 23.4767 2.90898 24.7613V24.7613ZM3.87889 28.4026C3.82051 27.4801 3.57082 27.1565 3.27282 26.339L3.99992 26.9461L4.24243 26.5818L4.36347 26.2177C3.56994 25.4702 3.05058 24.7379 1.697 24.5185C1.74176 26.3639 2.57606 27.8057 3.87889 28.4026V28.4026ZM4.84842 31.6797C4.63979 30.6228 4.38315 30.3941 3.87889 29.7376L4.72731 30.2232L4.96983 29.4951C4.2488 28.7947 3.44794 28.1946 2.06055 28.1598C2.30758 29.7324 3.38409 31.34 4.84842 31.6797V31.6797ZM7.7577 35.0783L7.63637 34.3502L8.12124 34.8357L8.24235 33.7432C7.83663 33.0271 7.30285 32.6471 6.54542 32.2865C6.10812 32.8143 6.19749 33.7157 6.42432 34.3502L5.21227 33.0148L5.93936 33.379H6.06077C6.04168 31.9083 4.62041 31.6085 3.15149 31.6797C3.14195 33.8087 6.16738 34.9055 7.7577 35.0783V35.0783ZM7.99991 37.6272L8.24235 37.3847C7.90307 36.8027 7.64354 36.5817 7.15141 36.1707H7.7577L7.63637 35.3211C6.65144 35.0421 5.62901 34.9191 4.60598 34.957C5.05705 36.3576 6.52575 37.2654 7.99991 37.6272V37.6272ZM10.3032 40.0549L10.7878 39.9337V39.812C10.3821 39.2368 10.0997 38.9632 9.21226 38.8412L9.09085 38.5984L9.81825 38.7197L10.0607 38.5984L9.81825 37.87L7.63637 37.7488L7.0303 37.9916H6.78786C7.20631 39.4014 8.86055 39.6654 10.3032 40.0549V40.0549ZM13.4546 42.1182L13.5757 41.8755C12.9411 41.4532 12.6831 41.1108 11.6363 41.0258L12.6062 40.7833V40.6618L12.4848 40.2977C12.0692 40.093 11.5132 40.0297 10.7878 40.0549L9.57581 40.5404L9.33329 41.0258C10.5743 41.5643 11.4892 42.1504 13.4546 42.1182V42.1182ZM11.0303 43.4534C12.0727 44.7184 14.2546 44.8047 16.3637 44.6672C15.9483 44.1063 15.6718 43.8265 14.6667 43.8176L14.5456 43.5749H15.3941L15.2727 42.9679L15.1516 42.7254L13.3333 42.6039L11.0303 43.3322V43.4534ZM21.8181 45.6384L22.0606 45.2743C21.1517 44.8312 20.6896 45.1449 19.5151 45.2743V45.1528L20.485 44.7887L20.606 44.546L19.0304 44.3031L16.7272 45.1528L16.2426 45.7596C18.112 46.6865 19.9943 46.0776 21.8181 45.6384V45.6384ZM15.5152 42.361V42.2398L14.6667 41.1474C15.1126 41.2043 15.0464 40.8418 14.7881 40.2977C14.3627 39.6095 13.3249 39.5929 12.4848 39.5693C12.4605 40.8614 13.6173 41.8407 14.7881 42.361H15.5152ZM15.1516 38.7197C15.0256 40.3119 15.0508 41.558 16.0001 42.361H16.2426C16.4564 42.0294 16.3948 41.9345 16.3637 41.2686H16.485C16.6769 41.9483 16.7292 42.2909 17.4546 42.4826C17.4237 40.7193 16.6139 39.0527 15.1516 38.7197V38.7197ZM14.6667 39.812H14.7881C14.6858 37.989 13.7549 36.832 12.4848 36.1707C12.377 36.893 12.2163 38.3617 12.7272 39.084L12.9697 39.448H13.5757L13.4546 38.4769C13.9448 39.0418 13.9384 39.4359 14.6667 39.812V39.812ZM11.1516 29.9804H17.6971V29.4951H11.1516V29.9804ZM10.6667 29.3736H18.303V29.0095H10.6667V29.3736ZM12.1212 37.87L12.2423 37.7488C11.9851 36.524 12.0539 35.1147 10.6667 34.1074C10.2266 35.0569 10.276 35.8234 10.3032 37.1418L11.0303 37.5059C11.2935 37.1477 11.1999 37.1364 11.1516 36.5351C11.5638 37.0238 11.5553 37.503 12.1212 37.87V37.87ZM18.4241 44.1818H19.0304C18.6753 42.9944 17.1124 42.4267 15.5152 42.4826L15.2727 42.6039C15.6865 43.6864 16.0365 44.4502 17.3335 44.6672L17.9395 44.4247L17.3335 43.6963L18.4241 44.1818ZM12.6062 39.448C12.1334 38.1461 11.6484 37.6802 10.0607 37.5059C10.1399 38.647 10.491 39.0901 10.9092 39.812H12.1212L11.7577 39.084L12.6062 39.448ZM10.0607 37.2632H10.1818L10.0607 36.0495C9.39574 35.5989 8.94666 35.1527 7.8788 35.0783C7.90514 36.4442 8.16637 37.2376 9.21226 37.6272H9.69684L9.4547 36.7775L10.0607 37.2632ZM8.36376 34.8357L9.21226 35.1998V34.3502C9.43879 34.6338 9.46165 34.8679 9.4547 35.4426L9.93936 35.8067C10.5317 34.6659 10.3887 33.2818 9.57581 32.2865C9.36311 31.9989 9.45529 32.0784 9.09085 31.9225C8.58829 32.8092 8.3369 33.8165 8.36376 34.8357V34.8357ZM7.99991 29.2523C7.45459 30.0119 6.66098 31.137 7.0303 32.4081L7.63637 32.5293L7.7577 31.6797L7.8788 33.0148L8.24235 33.2577C9.0128 32.0753 8.7984 30.7134 8.36376 29.3736L7.99991 29.2523ZM5.57581 19.7846L5.69692 20.2702V20.513L6.54542 20.1487L5.93936 20.9983V21.6054H6.06077C7.26875 20.8421 8.19182 20.1368 8.36376 18.3281H8.12124C7.11094 18.8487 6.39716 19.1871 5.57581 19.7846V19.7846ZM4.72731 19.4206L4.96983 19.5418L5.33337 18.6922V19.6633H5.45448L6.30291 18.8138C6.44947 18.0376 6.30846 17.3836 6.18188 16.6289H5.81833C5.33337 17.1961 4.85508 17.4828 4.48487 18.2069L4.72731 19.4206ZM4.72731 22.0908V21.848L4.84842 22.8192L5.69692 21.7267C5.68708 20.847 5.49835 20.0372 4.96983 19.6633L3.75748 21.2411L4.12132 22.5764C4.5519 22.3973 4.45683 22.3709 4.72731 22.0908V22.0908ZM4.84842 25.975H5.09086L5.57581 25.004C5.48511 24.0395 5.1334 23.2298 4.48487 22.8192C4.1271 23.6367 3.66619 23.9195 3.63637 25.1253L4.24243 25.7321L4.36347 25.975L4.60598 25.1253L4.84842 25.975ZM5.33337 28.8879L5.57581 29.0095L5.93936 27.7958C5.60097 27.0694 5.34173 26.4377 4.60598 26.0965C4.25457 26.7832 3.99015 27.3041 3.99992 28.4026L4.72731 29.1307L5.09086 29.2523V28.5239L5.33337 28.8879ZM5.21227 29.2523C5.04987 29.8235 4.78805 30.8833 5.09086 31.5584C5.30733 31.8406 5.44982 31.9077 5.81833 32.0441L6.06077 32.2865L6.18188 31.5584L6.54542 32.0441H6.66675L6.90927 30.83C6.47433 30.1795 6.01741 29.5411 5.21227 29.2523V29.2523ZM7.63637 26.7034L7.27282 26.5818L5.81833 28.7667V29.3736L6.30291 29.7376L6.54542 29.1307L6.90927 28.8879L6.78786 30.2232V30.466L7.0303 30.5873C7.49965 29.3194 8.07649 28.4631 7.63637 26.7034V26.7034ZM6.06077 27.4315V27.6742C6.62488 27.2419 8.36894 25.0139 7.15141 23.7901C6.44829 24.4221 5.79954 25.1126 5.21227 25.8537V26.339L5.69692 26.7034L5.93936 26.2177L6.30291 25.975C6.13823 26.5063 5.877 26.9071 6.06077 27.4315V27.4315ZM5.57581 24.1544L5.69692 24.6397H5.81833C6.43763 24.2184 8.54901 22.1929 7.39385 20.9983C6.59484 21.6255 5.83971 22.199 5.09086 22.8192L5.21227 23.4261C5.75411 23.5707 5.62065 23.437 6.18188 23.0619L5.57581 24.1544ZM17.6971 28.1598L14.5456 17.8425V17.5997C13.6023 18.6656 11.3875 26.3607 11.2727 28.1598H17.6971ZM9.81825 28.7667H18.9091V28.2811H9.81825V28.7667ZM23.0304 44.91C23.0304 44.9745 23.0559 45.0362 23.1012 45.0816C23.1469 45.1273 23.2084 45.1528 23.2729 45.1528H24.8485C24.9129 45.1528 24.9745 45.1273 25.0199 45.0816C25.0655 45.0362 25.091 44.9745 25.091 44.91V43.8508C25.4548 43.7895 25.8125 43.6951 26.1594 43.5689L26.7033 44.5086C26.7703 44.6246 26.9186 44.664 27.0344 44.5969L28.3979 43.8053C28.5135 43.7382 28.553 43.5898 28.4857 43.4737L27.9479 42.5445C28.234 42.3081 28.4984 42.0462 28.7375 41.7623L29.6888 42.3052C29.8053 42.3715 29.9532 42.3309 30.0197 42.2146L30.8 40.8438C30.8318 40.7879 30.8402 40.7216 30.8231 40.6595C30.8063 40.5975 30.7653 40.5446 30.7096 40.5126L29.7842 39.9846C29.9099 39.653 30.0064 39.3108 30.0729 38.9624H31.1517C31.2159 38.9624 31.2774 38.937 31.3231 38.8912C31.3684 38.8457 31.3939 38.7841 31.3939 38.7197V37.1418C31.3939 37.0773 31.3684 37.0157 31.3231 36.9703C31.2774 36.9246 31.2159 36.8991 31.1517 36.8991H30.1142C30.0533 36.4873 29.9501 36.083 29.8067 35.6924L30.6899 35.1796C30.8058 35.1124 30.8451 34.964 30.7781 34.8479L29.9879 33.4829C29.9209 33.3667 29.7726 33.3272 29.6567 33.3945L28.7788 33.9042C28.5323 33.6062 28.2586 33.3321 27.961 33.0855L28.4453 32.235C28.4771 32.1789 28.4854 32.1126 28.4684 32.0506C28.4513 31.9885 28.4103 31.9358 28.3546 31.904L26.9856 31.1223C26.9295 31.0905 26.8634 31.0821 26.8015 31.0992C26.7394 31.1162 26.6868 31.1573 26.655 31.2132L26.1753 32.0559C25.8235 31.9269 25.4606 31.8305 25.0912 31.7682V30.83C25.0912 30.7658 25.0655 30.7039 25.0202 30.6585C24.9745 30.613 24.9129 30.5873 24.8488 30.5873H23.2729C23.2084 30.5873 23.1469 30.613 23.1012 30.6585C23.0559 30.7039 23.0304 30.7658 23.0304 30.83V31.7679C22.6408 31.834 22.2585 31.9377 21.8892 32.0779L21.4346 31.2924C21.3672 31.1765 21.219 31.137 21.1031 31.2042L19.7399 31.9954C19.6241 32.0626 19.5848 32.211 19.6518 32.3271L20.1139 33.1255C19.8075 33.3847 19.5269 33.6733 19.2767 33.9872L18.4935 33.5402C18.4378 33.5083 18.3715 33.4999 18.3094 33.517C18.2476 33.5341 18.1947 33.5749 18.1629 33.6311L17.3826 35.0018C17.3508 35.0577 17.3425 35.124 17.3595 35.1862C17.3766 35.2482 17.4173 35.3011 17.4734 35.3329L18.28 35.7934C18.1546 36.1525 18.0632 36.5226 18.0071 36.8991H17.0911C17.0266 36.8991 16.965 36.9246 16.9196 36.9703C16.874 37.0157 16.8486 37.0773 16.8486 37.1418V38.7197C16.8486 38.7841 16.874 38.8457 16.9196 38.8912C16.965 38.937 17.0266 38.9624 17.0911 38.9624H18.0491C18.1141 39.3054 18.2086 39.6416 18.3311 39.9683L17.4919 40.4557C17.376 40.5228 17.3367 40.6713 17.4037 40.7873L18.1941 42.1524C18.2612 42.2684 18.4094 42.3078 18.5253 42.2406L19.3724 41.749C19.6206 42.045 19.896 42.3171 20.1954 42.5616L19.6923 43.4453C19.6261 43.5617 19.6665 43.7101 19.7827 43.7765L21.1516 44.5581C21.2074 44.5899 21.2736 44.5983 21.3358 44.5811C21.3976 44.5642 21.4505 44.5234 21.4823 44.4671L21.9883 43.5781C22.327 43.6998 22.6755 43.7911 23.0304 43.8508V44.91ZM31.6363 45.7596H31.8788C31.1121 44.8174 29.7232 44.2739 28 44.3031L27.3939 44.546L28.3638 45.0315L28.4849 45.2743C27.4546 45.1285 26.9853 44.8967 26.0608 45.1528L25.9394 45.3956C27.22 45.937 30.1746 47.1973 31.6363 45.7596V45.7596ZM36.9697 43.6963L37.0911 43.4534C36.3579 42.8587 35.1219 42.6107 33.8182 42.6039L32.8487 42.8466L32.7273 43.2106V43.5749H33.5758V43.6963C32.7111 43.8575 32.3097 43.9718 31.8788 44.546H31.6363C33.5197 45.4156 35.686 44.181 36.9697 43.6963V43.6963ZM38.788 40.7833C37.9023 40.3252 37.22 40.0123 35.7577 40.0549L35.5152 40.7833L36.2426 41.0258L35.2728 41.1474L34.5456 41.997C36.0926 42.6374 37.7427 41.4627 38.6667 41.0258L38.788 40.7833ZM41.3335 38.2343L41.2121 37.9916L38.4242 37.7488L38.0606 38.7197L38.9091 38.5984C38.4806 38.9589 38 38.9272 37.6971 39.448L37.3335 39.812C38.5375 40.5298 40.754 39.0426 41.3335 38.2343V38.2343ZM43.2729 35.3211L43.5154 35.0783L41.3335 34.957L40.3636 35.3211L40.2425 35.8067C40.6151 36.2292 40.5041 36.0871 41.2121 36.0495V36.1707C40.4795 36.4086 40.3368 36.6786 39.879 37.1418L39.7576 37.5059L40.0001 37.6272C41.1038 37.0307 42.6654 36.8071 43.2729 35.3211V35.3211ZM44.9699 31.6797H44.2425C43.4498 32.0414 42.6128 32.1896 41.9395 32.5293L42.0606 33.2577L42.9091 33.0148C42.4311 33.5757 42.045 33.8443 41.6971 34.593V34.7142C43.3157 34.5898 44.691 33.1483 44.9699 31.6797V31.6797ZM43.1516 29.3736L43.2729 30.1019L44.1214 29.7376C43.7662 30.4497 43.3709 30.6092 43.2729 31.6797C44.6038 31.172 45.8366 29.8768 45.9394 28.1598C44.5965 28.2597 43.9734 28.7924 43.1516 29.3736V29.3736ZM45.9395 24.5185L43.7576 26.0965L44 26.9461L44.8485 26.339C44.485 27.0107 44.224 27.2691 44.2425 28.4026C45.5851 27.6499 46.1276 26.3344 46.4244 24.5185H45.9395ZM45.9394 20.7559C45.1658 21.3965 44.5806 22.0094 43.879 22.6976L44 23.3048L44.3639 23.5473L44.7274 22.9404L44.9699 22.8192C44.7049 23.6445 44.5474 23.8815 44.6061 24.8825C45.4069 24.6518 47.0763 21.8697 45.9394 20.7559V20.7559ZM41.6971 18.8138L42.6669 19.6633V18.8138L43.1516 19.4206L43.5154 18.5709C43.7454 17.7421 42.7331 16.8586 41.9395 16.6289L41.6971 18.6922V18.8138ZM39.7576 33.2577H40.0001C40.1793 32.6738 40.1665 32.4857 40.1212 31.6797L40.485 32.6509L41.2121 32.2865C41.1581 31.0484 40.7197 29.7202 39.879 29.2523C39.0204 30.6799 39.2816 31.7633 39.7576 33.2577V33.2577ZM38.0606 35.8067C38.5132 35.435 38.6482 35.0493 38.6667 34.2286H38.788L38.9091 35.1998H39.0306C40.216 34.5464 39.3718 32.8442 39.0306 31.9225H38.6667C37.852 33.2236 37.7506 34.1184 38.0606 35.8067V35.8067ZM29.9393 29.3736H37.5757V29.0095H29.9393V29.3736ZM30.4243 29.9804H36.9697V29.4951H30.4243V29.9804ZM31.0303 42.361L31.6363 41.2686V42.361C32.7718 42.1498 33.6111 39.8364 32.7273 38.5984C31.3066 39.6729 31.0789 40.3891 30.5454 42.4826L31.0303 42.361ZM35.0303 39.5693L33.4547 39.9337L33.0908 40.9045C33.3012 41.288 33.0342 41.0478 33.4547 41.1474C33.0975 41.5993 32.7845 41.6923 32.6062 42.361C34.4132 42.3512 35.4074 41.145 35.6366 39.5693H35.0303ZM35.6366 36.1707H35.5152C34.3575 36.902 33.8012 37.7577 33.3333 39.2053V39.812H33.4547C34.0936 39.4601 34.1073 39.1101 34.5456 38.5984V39.448L35.3941 39.3265C35.6606 38.2583 35.677 37.5302 35.6366 36.1707V36.1707ZM37.5757 34.3502L37.4547 34.1074C36.6397 34.5787 36.2328 35.3645 35.8788 36.2922V37.87C36.5316 37.6263 36.6426 37.3239 36.7273 36.5351H36.8486V37.3847H37.5757C37.8775 36.4412 37.802 35.2968 37.5757 34.3502V34.3502ZM42.9091 29.2523H42.5455L41.2121 30.7088L41.3335 32.0441H41.4546L41.8181 31.5584V32.1653L42.0606 32.2865C43.0518 31.3511 43.2498 31.0013 42.9091 29.2523V29.2523ZM43.5154 26.0965H43.1516C42.4303 27.3082 42.1482 27.4922 42.4245 29.0095H42.5455C42.7394 28.7699 42.71 28.8436 42.788 28.4026L42.9091 29.1307L43.7576 28.7667C44.2183 27.8157 43.8061 26.9138 43.5154 26.0965V26.0965ZM43.394 22.8192C42.8923 23.6277 42.0696 24.8136 43.0305 25.7321V25.975C43.233 25.7215 43.2244 25.7359 43.2729 25.2469C43.4668 25.4862 43.4371 25.4124 43.5154 25.8537L43.7576 25.975L44.485 25.004C44.3818 24.0054 43.9977 23.3129 43.394 22.8192V22.8192ZM42.4245 21.9695L42.5455 22.2123L43.1516 22.6976L43.2729 21.9695H43.394L43.6365 22.6976C44.7257 21.8167 44.1405 20.1524 42.9091 19.6633C42.5565 20.3791 42.3898 21.1723 42.4245 21.9695V21.9695ZM41.6971 24.0329L42.3031 24.6397L42.4245 24.5185L41.9395 23.0619C42.3331 23.3525 42.4366 23.4879 42.788 23.5473L42.9091 22.8192C42.2938 21.9739 41.5428 21.4139 40.485 20.9983C40.3735 22.1131 40.7017 23.6268 41.6971 24.0329V24.0329ZM42.4245 26.7034L42.9091 26.0965C42.432 25.0981 41.7849 24.2047 40.7275 23.7901C40.4506 25.4859 40.7963 26.6935 41.8181 27.4315L41.9395 27.6742H42.0606C42.0768 26.9181 41.9655 26.8339 41.8181 26.0965L42.4245 26.7034ZM41.576 29.6163L41.8181 29.7376L42.3031 29.3736C42.178 28.1269 41.4783 26.9693 40.485 26.5818C40.0816 28.2425 40.5075 29.2667 40.9696 30.466L41.2121 30.5873C41.3878 29.897 41.3072 29.7329 41.2121 28.8879L41.576 29.6163ZM40.3636 35.1998L41.576 34.7142C41.7615 33.9407 42.1522 32.6873 41.3335 32.2865L39.879 33.5005V34.8357L40.485 34.3502L40.3636 35.1998ZM38.3032 37.6272L39.3941 37.3847C40.0001 36.9662 40.1671 36.1449 40.1212 35.0783H39.7576L38.4242 35.6854L37.9395 36.6563V37.2632L38.6667 36.7775L38.3032 37.6272ZM35.8788 39.812H37.0911C37.6648 39.2883 37.9526 38.4965 38.0606 37.5059H37.8182L36.0002 38.1128L35.5152 39.3265V39.448L36.2426 39.084L35.8788 39.812ZM30.0607 44.4247L31.0303 44.6672C32.01 44.2181 32.3352 43.755 32.7273 42.7254C32.4325 42.4895 32.1114 42.4655 31.5153 42.4826L29.6969 43.2106L28.9698 44.0603V44.1818C29.8351 44.1398 30.0695 43.9556 30.6668 43.6963L30.0607 44.4247ZM36.8486 28.1598L33.5758 17.5997L30.3032 28.0383V28.1598H36.8486ZM29.0909 28.7667H38.182V28.2811H29.0909V28.7667ZM41.0991 18.3093C39.94 13.976 35.9585 10.2793 34.9306 9.461C34.6849 9.26534 34.4679 9.3455 34.5676 9.461C38.5193 13.0363 39.9299 15.824 40.8572 18.4306C40.9214 18.461 41.1142 18.4659 41.0991 18.3093V18.3093ZM39.7576 18.3281C39.8559 20.1637 40.7636 20.9662 42.0606 21.6054H42.182C42.0837 20.7662 41.8289 20.6513 41.4546 20.1487L42.3031 20.6343L42.5455 19.9062C41.9274 19.0782 40.9726 18.5608 39.7576 18.3281V18.3281ZM45.091 17.2357C44.3142 17.9606 43.7932 18.5246 43.394 19.6633L44 20.2702L44.2425 19.5418L44.485 19.4206C44.2717 20.2476 44.2029 20.4812 44.3639 21.2411L44.485 21.484H44.6061C45.3303 20.8696 46.1177 18.0787 45.091 17.2357V17.2357ZM48 24.0329C48 37.306 37.255 48.0657 24 48.0657C10.7453 48.0657 0 37.306 0 24.0329C0 10.7601 10.7453 0 24 0C37.255 0 48 10.7601 48 24.0329V24.0329ZM9.19805 44.2621C9.92456 44.7997 10.6795 45.2978 11.4595 45.7538L10.6667 50.8575L5.81833 50.7362V48.9154L8.36376 49.037L9.19805 44.2621ZM11.7004 45.8933C12.4232 46.3049 13.1662 46.6801 13.9266 47.0176L13.4546 53.0423L8.6062 52.5568V51.1003H10.9092L11.7004 45.8933ZM13.5757 53.4064L14.2681 47.1669C15.0716 47.509 15.8923 47.8085 16.7272 48.0643V55.3485C16.7272 55.3485 13.7454 55.1301 11.5152 54.8632C11.1757 54.5232 11.7577 53.164 11.7577 53.164L13.5757 53.4064ZM27.7577 50.6147L29.3333 51.7072V53.2852C29.3333 53.2852 28.6062 53.4412 28.4849 53.6492C28.052 53.7187 27.7577 53.7707 27.7577 53.7707V50.6147ZM31.3939 48.0643C32.2288 47.8085 33.0498 47.509 33.8532 47.1669L34.5456 53.4064L36.3637 53.164C36.3637 53.164 36.9454 54.5232 36.6062 54.8632C34.3757 55.1301 31.3939 55.3485 31.3939 55.3485V48.0643ZM39.3117 43.9677C40.739 42.8677 42.0444 41.6173 43.2053 40.2384L44.6061 48.1873L40.0001 48.7941L39.3117 43.9677ZM42.3031 50.7362L37.4547 50.8575L36.6616 45.7532C37.4419 45.2974 38.1968 44.7994 38.923 44.2618L39.7576 49.037L42.3031 48.9154V50.7362ZM34.1948 47.0173C34.9552 46.6799 35.6982 46.3046 36.4209 45.8927L37.2121 51.1003H39.5151V52.5568L34.6667 53.0423L34.1948 47.0173ZM31.1517 50.2506L29.0366 48.6622C29.2646 48.6162 29.4917 48.5673 29.7175 48.5155L31.1517 49.6438V50.2506ZM31.1517 48.5514V49.2798L30.1183 48.4179C30.3743 48.3546 30.6295 48.2872 30.8833 48.216L31.1517 48.5514ZM31.1517 51.2219L27.7165 48.8914C28.0199 48.8468 28.3213 48.797 28.6213 48.7418L31.1517 50.6147V51.2219ZM31.1517 52.4356L26.1157 49.0734C26.5197 49.0405 26.9209 48.9982 27.3185 48.9467L31.1517 51.5859V52.4356ZM25.9394 53.6492V49.2798L27.3939 50.3721V53.6492H25.9394ZM24.1214 53.6492H25.697V49.1582H24.1214V53.6492ZM22.303 53.6492H23.8789V49.1582H22.303V53.6492ZM22.0606 49.2798V53.6492H20.606V50.3721L22.0606 49.2798ZM18.6666 51.7072L20.2425 50.6147V53.7707C20.2425 53.7707 19.948 53.7187 19.5151 53.6492C19.3941 53.4412 18.6666 53.2852 18.6666 53.2852V51.7072ZM16.9697 51.5859L20.8026 48.9473C21.2008 48.9991 21.6016 49.0413 22.0053 49.0737L16.9697 52.4356V51.5859ZM19.0848 48.6622L16.9697 50.2506V49.6438L18.404 48.5149C18.6296 48.5676 18.8568 48.6165 19.0848 48.6622V48.6622ZM16.9697 48.5514L17.2381 48.2157C17.4913 48.2872 17.7465 48.3537 18.0028 48.4176L16.9697 49.2798V48.5514ZM20.4049 48.8914L16.9697 51.2219V50.6147L19.5001 48.7421C19.7998 48.797 20.1015 48.8468 20.4049 48.8914V48.8914ZM4.91604 40.2384C6.07697 41.6173 7.38231 42.8677 8.80965 43.9677L8.12124 48.7941L3.51504 48.1873L4.91604 40.2384Z" fill="#F02300"/>
<path id="Fill 1_2" fill-rule="evenodd" clip-rule="evenodd" d="M23.9997 35.079C25.5395 35.079 26.7877 36.3289 26.7877 37.8707C26.7877 39.4126 25.5395 40.6625 23.9997 40.6625C22.46 40.6625 21.2119 39.4126 21.2119 37.8707C21.2119 37.1304 21.5057 36.4202 22.0286 35.8968C22.5513 35.3733 23.2605 35.079 23.9997 35.079V35.079ZM24.0605 41.7549C25.6537 41.7549 27.0903 40.7938 27.7 39.3197C28.3098 37.8455 27.9726 36.1488 26.8461 35.0209C25.7193 33.8925 24.0249 33.555 22.5528 34.1657C21.0809 34.7763 20.1209 36.2146 20.1209 37.8103C20.1209 39.9887 21.8846 41.7549 24.0605 41.7549V41.7549ZM18.7878 37.8103C18.7878 34.8941 21.1482 32.53 24.0605 32.53C26.9723 32.53 29.3331 34.8941 29.3331 37.8103C29.3331 40.7261 26.9723 43.0901 24.0605 43.0901C21.1482 43.0901 18.7878 40.7261 18.7878 37.8103V37.8103ZM39.406 8.25031C39.1603 8.05495 38.9433 8.13511 39.043 8.25031C43.1303 12.3408 43.5279 14.2502 44.6067 16.8562C44.6712 16.8865 44.8639 16.8918 44.8492 16.7349C43.5533 12.3105 40.4336 9.06753 39.406 8.25001V8.25031ZM37.2287 8.00783C36.9834 7.81218 36.7663 7.89234 36.866 8.00783C40.9533 12.0981 42.2736 14.886 43.3976 17.704C43.4617 17.7345 43.6544 17.7397 43.64 17.5828C42.2228 12.9769 38.2564 8.82564 37.2284 8.00754L37.2287 8.00783ZM34.5679 7.88626C39.7738 12.1287 40.9709 15.5224 41.3411 16.0065C41.511 16.2493 41.5982 16.0421 41.5835 15.8853C39.3661 10.9561 35.9595 8.70377 34.9312 7.88537C34.6847 7.6909 34.4677 7.77106 34.5673 7.88626H34.5679ZM34.3255 10.9164C38.2772 14.4922 39.3075 17.81 39.5265 17.9466C39.5907 17.9767 39.6626 17.9819 39.6479 17.825C38.3072 14.2597 35.7167 11.7345 34.6888 10.9164C34.4428 10.7211 34.2258 10.8013 34.3255 10.9164V10.9164ZM31.8786 15.2943H26.4241L26.3027 19.1785L26.5452 19.4213C28.617 16.7124 32.1262 17.9023 35.7574 17.2364C35.9898 16.8376 36.0956 16.7098 36.121 16.0227L35.9999 15.7799C35.6219 15.5357 35.4508 15.3346 34.909 15.5371C34.4937 15.7877 34.4758 15.8902 34.424 16.5083C32.7369 16.8153 32.8389 15.6691 31.8786 15.2943V15.2943ZM32.3635 6.7979H31.8786C31.7372 7.10142 31.8786 7.36449 31.8786 7.64749C31.6329 7.81277 31.3815 7.96931 31.1246 8.11629C30.8541 8.27142 30.5099 8.09118 30.0605 8.25438C29.6606 8.40018 29.6649 8.82735 29.3569 8.93329C29.1439 9.00589 28.9407 8.9318 28.7271 8.98277C28.567 9.02093 28.3956 9.1891 28.2376 9.21221C27.5821 9.30659 26.9533 9.25881 26.4241 8.98277C25.9239 8.54027 26.0545 7.66631 26.1817 6.9194H26.7877L26.9091 6.67663L26.7877 6.31228H26.1817C26.3345 5.56796 26.6473 5.65042 27.1512 5.34134L27.0301 4.9773C26.7137 4.50272 26.0146 4.56665 25.2121 4.61295C25.1572 3.15506 24.8624 2.54298 25.3332 1.45721L25.2121 1.33594H23.7573C23.2605 2.18064 22.9542 3.41665 22.7878 4.61295H21.0908L20.9694 5.34134C21.2702 5.6299 21.3385 5.66435 21.9393 5.70539C21.7624 6.39822 21.6306 6.18871 21.2119 6.55505V6.9194H21.9393V8.73993C19.8501 8.74371 18.5557 7.42472 16.3634 7.89034C15.8952 8.53827 15.269 10.1357 15.5149 10.9249C16.3961 12.3478 19.9149 12.3782 21.9393 12.6241V31.6804H22.6664C22.7068 31.3164 22.7878 30.4667 22.7878 30.4667H25.3332V31.6804H26.0606V13.1095C26.601 12.95 26.7842 12.9743 27.1512 12.8669C27.4506 12.7793 28.128 12.2939 28.3898 12.1498C28.7398 11.9574 29.1398 11.8746 29.4545 11.653C29.775 11.4272 30.0103 11.0617 30.3012 10.8074C30.6561 10.4974 30.7674 10.2216 31.1012 9.83244C31.1659 9.75687 31.2096 9.5427 31.2729 9.46832C31.348 9.37979 31.6849 9.31067 31.7578 9.22555C32.0607 8.87276 32.3167 8.63925 32.6063 8.25468L32.7273 7.04067L32.3635 6.7979ZM13.5755 16.5083V15.7799C13.0966 15.4804 12.933 15.4144 12.2421 15.5371C12.0635 15.8989 11.9895 16.229 11.9999 16.8724C13.5293 17.8499 15.3453 16.791 17.6968 17.2364C19.3846 17.5559 20.4986 18.6023 21.6967 19.4213V15.4159L21.5757 15.2943H17.0908C15.8794 15.8806 15.0774 16.7005 13.5755 16.5083V16.5083ZM13.3331 10.9249C12.3028 11.7441 9.70675 14.2728 8.36353 17.8432C8.34822 18.0002 8.42013 17.9952 8.48464 17.9648C8.70452 17.8282 9.73709 14.5055 13.6969 10.9249C13.7969 10.8091 13.5793 10.7292 13.3331 10.9249V10.9249ZM13.0905 9.46832C12.0603 10.2876 8.07049 13.9895 6.90904 18.3289C6.89373 18.4857 7.08704 18.4805 7.15119 18.4501C8.08062 15.8407 9.49465 13.0489 13.4544 9.46832C13.5544 9.3526 13.3368 9.27244 13.0905 9.46832V9.46832ZM13.0905 7.89034C12.0603 8.70955 8.64614 10.9651 6.42409 15.9011C6.40878 16.0581 6.49607 16.2655 6.66653 16.0227C7.03762 15.5371 8.23725 12.1385 13.4544 7.89034C13.5544 7.77484 13.3368 7.69468 13.0905 7.89034V7.89034ZM10.7876 8.01154C9.75736 8.83112 5.78252 12.9882 4.36324 17.6005C4.34822 17.7573 4.54161 17.7524 4.60576 17.722C5.73221 14.8999 7.05523 12.1081 11.1514 8.01154C11.2514 7.89641 11.0338 7.81596 10.7876 8.01154V8.01154ZM8.60597 8.25438C7.5754 9.0736 4.44914 12.3205 3.15127 16.7508C3.13625 16.9076 3.32927 16.9028 3.39371 16.8724C4.47451 14.2626 4.87335 12.351 8.96952 8.25438C9.06954 8.13889 8.85189 8.05873 8.60597 8.25438V8.25438ZM3.15127 21.2418L3.51482 21.4847C3.95664 20.7956 3.76798 20.3372 3.63615 19.4213H3.75725L3.99969 20.1494L4.24221 20.271C4.91234 19.2459 4.0318 17.5582 2.66631 17.2364C2.50303 18.8426 2.76338 20.0429 3.15127 21.2418V21.2418ZM2.90875 24.762L3.39371 24.8833C3.58961 23.9644 3.43736 23.7885 3.15127 22.9412L3.75725 23.548L4.24221 22.9412C3.75237 21.9879 3.02032 21.1177 1.93922 20.7566C1.71379 22.5375 2.4383 23.4774 2.90875 24.762V24.762ZM3.87866 28.4033C3.82029 27.4808 3.5706 27.1573 3.2726 26.3397L3.99969 26.9469L4.24221 26.5825L4.36324 26.2185C3.56971 25.471 3.05036 24.7386 1.69678 24.5192C1.74154 26.3646 2.57583 27.8064 3.87866 28.4033V28.4033ZM4.8482 31.6804C4.63957 30.6236 4.38292 30.3949 3.87866 29.7383L4.72709 30.224L4.9696 29.4958C4.24857 28.7955 3.44771 28.1953 2.06033 28.1606C2.30735 29.7331 3.38387 31.3407 4.8482 31.6804V31.6804ZM7.75747 35.079L7.63614 34.3509L8.12102 34.8365L8.24213 33.744C7.83641 33.0278 7.30263 32.6478 6.5452 32.2872C6.10789 32.815 6.19726 33.7165 6.42409 34.3509L5.21204 33.0156L5.93914 33.3797H6.06054C6.04145 31.9091 4.62018 31.6092 3.15127 31.6804C3.14172 33.8095 6.16715 34.9063 7.75747 35.079V35.079ZM7.99969 37.6279L8.24213 37.3854C7.90285 36.8035 7.64332 36.5824 7.15119 36.1715H7.75747L7.63614 35.3218C6.65122 35.0428 5.62878 34.9198 4.60576 34.9577C5.05683 36.3584 6.52552 37.2661 7.99969 37.6279V37.6279ZM10.303 40.0556L10.7876 39.9344V39.8127C10.3818 39.2375 10.0995 38.964 9.21203 38.842L9.09063 38.5991L9.81802 38.7204L10.0605 38.5991L9.81802 37.8707L7.63614 37.7495L7.03008 37.9923H6.78764C7.20608 39.4021 8.86032 39.6661 10.303 40.0556V40.0556ZM13.4544 42.119L13.5755 41.8762C12.9409 41.4539 12.6828 41.1116 11.6361 41.0265L12.606 40.784V40.6625L12.4846 40.2984C12.069 40.0937 11.513 40.0305 10.7876 40.0556L9.57558 40.5411L9.33307 41.0265C10.574 41.565 11.489 42.1511 13.4544 42.119V42.119ZM11.0301 43.4542C12.0725 44.7192 14.2544 44.8054 16.3634 44.6679C15.9481 44.1071 15.6716 43.8273 14.6664 43.8183L14.5453 43.5757H15.3938L15.2725 42.9686L15.1514 42.7261L13.3331 42.6046L11.0301 43.333V43.4542ZM21.8179 45.6391L22.0604 45.2751C21.1514 44.8319 20.6893 45.1457 19.5149 45.2751V45.1535L20.4848 44.7895L20.6058 44.5467L19.0302 44.3038L16.727 45.1535L16.2423 45.7603C18.1118 46.6872 19.994 46.0784 21.8179 45.6391V45.6391ZM15.5149 42.3617V42.2405L14.6664 41.1481C15.1123 41.205 15.0462 40.8425 14.7878 40.2984C14.3625 39.6103 13.3246 39.5937 12.4846 39.57C12.4603 40.8621 13.6171 41.8414 14.7878 42.3617H15.5149ZM15.1514 38.7204C15.0254 40.3126 15.0506 41.5587 15.9999 42.3617H16.2423C16.4562 42.0301 16.3946 41.9352 16.3634 41.2693H16.4848C16.6767 41.949 16.729 42.2917 17.4544 42.4833C17.4235 40.72 16.6137 39.0534 15.1514 38.7204V38.7204ZM14.6664 39.8127H14.7878C14.6855 37.9897 13.7547 36.8327 12.4846 36.1715C12.3768 36.8938 12.2161 38.3624 12.727 39.0847L12.9695 39.4487H13.5755L13.4544 38.4776C13.9445 39.0425 13.9382 39.4366 14.6664 39.8127V39.8127ZM11.1514 29.9811H17.6968V29.4958H11.1514V29.9811ZM10.6665 29.3743H18.3028V29.0102H10.6665V29.3743ZM12.121 37.8707L12.2421 37.7495C11.9849 36.5248 12.0537 35.1155 10.6665 34.1081C10.2263 35.0576 10.2757 35.8242 10.303 37.1425L11.0301 37.5067C11.2933 37.1484 11.1997 37.1371 11.1514 36.5358C11.5636 37.0245 11.5551 37.5037 12.121 37.8707V37.8707ZM18.4239 44.1826H19.0302C18.6751 42.9952 17.1122 42.4274 15.5149 42.4833L15.2725 42.6046C15.6863 43.6872 16.0363 44.4509 17.3333 44.6679L17.9393 44.4254L17.3333 43.697L18.4239 44.1826ZM12.606 39.4487C12.1331 38.1468 11.6482 37.6809 10.0605 37.5067C10.1397 38.6478 10.4908 39.0908 10.909 39.8127H12.121L11.7575 39.0847L12.606 39.4487ZM10.0605 37.2639H10.1816L10.0605 36.0502C9.39551 35.5996 8.94644 35.1534 7.87858 35.079C7.90492 36.4449 8.16615 37.2383 9.21203 37.6279H9.69662L9.45447 36.7783L10.0605 37.2639ZM8.36353 34.8365L9.21203 35.2005V34.3509C9.43857 34.6345 9.46143 34.8686 9.45447 35.4434L9.93913 35.8074C10.5315 34.6666 10.3885 33.2825 9.57558 32.2872C9.36288 31.9996 9.45507 32.0792 9.09063 31.9232C8.58807 32.8099 8.33668 33.8172 8.36353 34.8365V34.8365ZM7.99969 29.253C7.45437 30.0127 6.66076 31.1378 7.03008 32.4088L7.63614 32.53L7.75747 31.6804L7.87858 33.0156L8.24213 33.2584C9.01258 32.076 8.79818 30.7142 8.36353 29.3743L7.99969 29.253ZM5.57559 19.7854L5.6967 20.271V20.5137L6.5452 20.1494L5.93914 20.9991V21.6062H6.06054C7.26852 20.8428 8.1916 20.1375 8.36353 18.3289H8.12102C7.11072 18.8495 6.39694 19.1878 5.57559 19.7854V19.7854ZM4.72709 19.4213L4.9696 19.5426L5.33315 18.6929V19.6641H5.45426L6.30269 18.8145C6.44924 18.0383 6.30823 17.3843 6.18165 16.6296H5.8181C5.33315 17.1968 4.85485 17.4836 4.48465 18.2076L4.72709 19.4213ZM4.72709 22.0915V21.8487L4.8482 22.8199L5.6967 21.7275C5.68686 20.8477 5.49813 20.038 4.9696 19.6641L3.75725 21.2418L4.1211 22.5771C4.55168 22.398 4.45661 22.3716 4.72709 22.0915V22.0915ZM4.8482 25.9757H5.09064L5.57559 25.0048C5.48489 24.0403 5.13318 23.2305 4.48465 22.8199C4.12687 23.6374 3.66596 23.9202 3.63615 25.126L4.24221 25.7329L4.36324 25.9757L4.60576 25.126L4.8482 25.9757ZM5.33315 28.8886L5.57559 29.0102L5.93914 27.7965C5.60074 27.0701 5.34151 26.4384 4.60576 26.0972C4.25434 26.784 3.98993 27.3048 3.99969 28.4033L4.72709 29.1314L5.09064 29.253V28.5246L5.33315 28.8886ZM5.21204 29.253C5.04965 29.8243 4.78783 30.884 5.09064 31.5592C5.30711 31.8413 5.4496 31.9085 5.8181 32.0448L6.06054 32.2872L6.18165 31.5592L6.5452 32.0448H6.66653L6.90904 30.8308C6.4741 30.1802 6.01719 29.5418 5.21204 29.253V29.253ZM7.63614 26.7041L7.27259 26.5825L5.8181 28.7674V29.3743L6.30269 29.7383L6.5452 29.1314L6.90904 28.8886L6.78764 30.224V30.4667L7.03008 30.588C7.49942 29.3201 8.07626 28.4639 7.63614 26.7041V26.7041ZM6.06054 27.4322V27.675C6.62466 27.2426 8.36871 25.0146 7.15119 23.7908C6.44806 24.4228 5.79931 25.1133 5.21204 25.8544V26.3397L5.6967 26.7041L5.93914 26.2185L6.30269 25.9757C6.138 26.507 5.87677 26.9078 6.06054 27.4322V27.4322ZM5.57559 24.1552L5.6967 24.6404H5.8181C6.43741 24.2191 8.54878 22.1937 7.39363 20.9991C6.59462 21.6262 5.83948 22.1997 5.09064 22.8199L5.21204 23.4268C5.75389 23.5715 5.62042 23.4377 6.18165 23.0627L5.57559 24.1552ZM17.6968 28.1606L14.5453 17.8432V17.6005C13.6021 18.6663 11.3873 26.3615 11.2725 28.1606H17.6968ZM9.81802 28.7674H18.9089V28.2819H9.81802V28.7674ZM23.0302 44.9107C23.0302 44.9753 23.0557 45.0369 23.101 45.0823C23.1466 45.128 23.2082 45.1535 23.2726 45.1535H24.8482C24.9127 45.1535 24.9742 45.128 25.0197 45.0823C25.0653 45.0369 25.0908 44.9753 25.0908 44.9107V43.8516C25.4546 43.7902 25.8123 43.6958 26.1591 43.5696L26.703 44.5093C26.7701 44.6254 26.9183 44.6647 27.0342 44.5976L28.3977 43.8061C28.5132 43.739 28.5528 43.5905 28.4855 43.4745L27.9477 42.5452C28.2338 42.3088 28.4982 42.0469 28.7373 41.763L29.6886 42.3059C29.805 42.3722 29.953 42.3316 30.0195 42.2154L30.7998 40.8445C30.8315 40.7886 30.84 40.7223 30.8229 40.6602C30.8061 40.5983 30.7651 40.5453 30.7093 40.5134L29.784 39.9853C29.9097 39.6537 30.0062 39.3116 30.0726 38.9632H31.1514C31.2157 38.9632 31.2772 38.9377 31.3229 38.892C31.3682 38.8465 31.3937 38.7848 31.3937 38.7204V37.1425C31.3937 37.078 31.3682 37.0165 31.3229 36.971C31.2772 36.9253 31.2157 36.8999 31.1514 36.8999H30.114C30.053 36.488 29.9498 36.0837 29.8065 35.6931L30.6896 35.1803C30.8056 35.1132 30.8449 34.9647 30.7778 34.8486L29.9877 33.4836C29.9207 33.3675 29.7724 33.3279 29.6565 33.3953L28.7785 33.9049C28.532 33.6069 28.2584 33.3328 27.9607 33.0862L28.445 32.2358C28.4768 32.1796 28.4852 32.1133 28.4682 32.0514C28.4511 31.9892 28.4101 31.9365 28.3543 31.9047L26.9854 31.123C26.9293 31.0913 26.8631 31.0828 26.8013 31.0999C26.7391 31.117 26.6865 31.1581 26.6547 31.2139L26.175 32.0566C25.8233 31.9276 25.4604 31.8312 25.091 31.769V30.8308C25.091 30.7665 25.0653 30.7046 25.02 30.6592C24.9742 30.6137 24.9127 30.588 24.8485 30.588H23.2726C23.2082 30.588 23.1466 30.6137 23.101 30.6592C23.0557 30.7046 23.0302 30.7665 23.0302 30.8308V31.7686C22.6406 31.8347 22.2583 31.9385 21.889 32.0786L21.4344 31.2931C21.367 31.1772 21.2187 31.1378 21.1029 31.205L19.7397 31.9961C19.6238 32.0633 19.5846 32.2118 19.6516 32.3278L20.1137 33.1262C19.8073 33.3855 19.5267 33.674 19.2765 33.9879L18.4933 33.5409C18.4375 33.509 18.3713 33.5007 18.3092 33.5177C18.2473 33.5348 18.1945 33.5756 18.1627 33.6318L17.3824 35.0026C17.3506 35.0584 17.3422 35.1247 17.3593 35.187C17.3763 35.2489 17.4171 35.3018 17.4732 35.3336L18.2797 35.7941C18.1543 36.1532 18.063 36.5234 18.0069 36.8999H17.0908C17.0264 36.8999 16.9648 36.9253 16.9194 36.971C16.8738 37.0165 16.8483 37.078 16.8483 37.1425V38.7204C16.8483 38.7848 16.8738 38.8465 16.9194 38.892C16.9648 38.9377 17.0264 38.9632 17.0908 38.9632H18.0488C18.1139 39.3061 18.2083 39.6424 18.3309 39.9691L17.4917 40.4565C17.3757 40.5236 17.3365 40.672 17.4035 40.7881L18.1939 42.1531C18.2609 42.2691 18.4092 42.3085 18.5251 42.2414L19.3722 41.7497C19.6204 42.0458 19.8958 42.3178 20.1952 42.5623L19.6921 43.446C19.6258 43.5624 19.6663 43.7109 19.7825 43.7772L21.1514 44.5588C21.2072 44.5906 21.2734 44.5991 21.3356 44.5819C21.3974 44.5649 21.4502 44.5241 21.482 44.4679L21.9881 43.5789C22.3268 43.7005 22.6753 43.7918 23.0302 43.8516V44.9107ZM31.6361 45.7603H31.8786C31.1119 44.8181 29.723 44.2747 27.9997 44.3038L27.3937 44.5467L28.3636 45.0322L28.4847 45.2751C27.4544 45.1292 26.9851 44.8974 26.0606 45.1535L25.9392 45.3963C27.2197 45.9378 30.1744 47.1981 31.6361 45.7603V45.7603ZM36.9695 43.697L37.0909 43.4542C36.3577 42.8594 35.1217 42.6115 33.818 42.6046L32.8484 42.8473L32.727 43.2113V43.5757H33.5755V43.697C32.7109 43.8582 32.3095 43.9725 31.8786 44.5467H31.6361C33.5195 45.4163 35.6858 44.1817 36.9695 43.697V43.697ZM38.7878 40.784C37.9021 40.3259 37.2198 40.0131 35.7574 40.0556L35.515 40.784L36.2424 41.0265L35.2725 41.1481L34.5454 41.9977C36.0924 42.6381 37.7425 41.4635 38.6665 41.0265L38.7878 40.784ZM41.3332 38.2351L41.2119 37.9923L38.424 37.7495L38.0604 38.7204L38.9089 38.5991C38.4803 38.9597 37.9998 38.9279 37.6969 39.4487L37.3333 39.8127C38.5372 40.5305 40.7538 39.0433 41.3332 38.2351V38.2351ZM43.2727 35.3218L43.5152 35.079L41.3332 34.9577L40.3634 35.3218L40.2423 35.8074C40.6149 36.2299 40.5039 36.0878 41.2119 36.0502V36.1715C40.4793 36.4093 40.3366 36.6793 39.8788 37.1425L39.7574 37.5067L39.9999 37.6279C41.1035 37.0314 42.6652 36.8078 43.2727 35.3218V35.3218ZM44.9697 31.6804H44.2423C43.4496 32.0421 42.6126 32.1903 41.9393 32.53L42.0604 33.2584L42.9088 33.0156C42.4308 33.5765 42.0448 33.845 41.6969 34.5937V34.715C43.3154 34.5905 44.6908 33.1491 44.9697 31.6804V31.6804ZM43.1514 29.3743L43.2727 30.1027L44.1212 29.7383C43.766 30.4504 43.3707 30.6099 43.2727 31.6804C44.6035 31.1727 45.8364 29.8775 45.9392 28.1606C44.5963 28.2604 43.9732 28.7932 43.1514 29.3743V29.3743ZM45.9392 24.5192L43.7573 26.0972L43.9998 26.9469L44.8483 26.3397C44.4847 27.0114 44.2238 27.2699 44.2423 28.4033C45.5849 27.6507 46.1274 26.3351 46.4242 24.5192H45.9392ZM45.9392 20.7566C45.1656 21.3973 44.5804 22.0102 43.8787 22.6983L43.9998 23.3055L44.3636 23.548L44.7272 22.9412L44.9697 22.8199C44.7047 23.6453 44.5472 23.8822 44.6058 24.8833C45.4066 24.6526 47.0761 21.8704 45.9392 20.7566V20.7566ZM41.6969 18.8145L42.6667 19.6641V18.8145L43.1514 19.4213L43.5152 18.5716C43.7452 17.7429 42.7328 16.8593 41.9393 16.6296L41.6969 18.6929V18.8145ZM39.7574 33.2584H39.9999C40.179 32.6745 40.1663 32.4864 40.121 31.6804L40.4848 32.6516L41.2119 32.2872C41.1578 31.0492 40.7195 29.7209 39.8788 29.253C39.0202 30.6806 39.2814 31.7641 39.7574 33.2584V33.2584ZM38.0604 35.8074C38.513 35.4357 38.648 35.05 38.6665 34.2294H38.7878L38.9089 35.2005H39.0303C40.2157 34.5471 39.3716 32.8449 39.0303 31.9232H38.6665C37.8518 33.2243 37.7504 34.1191 38.0604 35.8074V35.8074ZM29.9391 29.3743H37.5755V29.0102H29.9391V29.3743ZM30.4241 29.9811H36.9695V29.4958H30.4241V29.9811ZM31.0301 42.3617L31.6361 41.2693V42.3617C32.7716 42.1505 33.6108 39.8371 32.727 38.5991C31.3064 39.6736 31.0786 40.3899 30.5452 42.4833L31.0301 42.3617ZM35.03 39.57L33.4544 39.9344L33.0906 40.9053C33.301 41.2887 33.034 41.0485 33.4544 41.1481C33.0973 41.6 32.7843 41.693 32.606 42.3617C34.413 42.352 35.4072 41.1457 35.6364 39.57H35.03ZM35.6364 36.1715H35.515C34.3572 36.9027 33.801 37.7585 33.3331 39.206V39.8127H33.4544C34.0934 39.4608 34.107 39.1108 34.5454 38.5991V39.4487L35.3939 39.3272C35.6604 38.2591 35.6768 37.531 35.6364 36.1715V36.1715ZM37.5755 34.3509L37.4544 34.1081C36.6394 34.5795 36.2325 35.3652 35.8785 36.293V37.8707C36.5314 37.6271 36.6423 37.3246 36.727 36.5358H36.8484V37.3854H37.5755C37.8772 36.4419 37.8018 35.2975 37.5755 34.3509V34.3509ZM42.9088 29.253H42.5453L41.2119 30.7095L41.3332 32.0448H41.4543L41.8179 31.5592V32.166L42.0604 32.2872C43.0516 31.3519 43.2496 31.0021 42.9088 29.253V29.253ZM43.5152 26.0972H43.1514C42.43 27.3089 42.1479 27.4929 42.4243 29.0102H42.5453C42.7392 28.7706 42.7098 28.8444 42.7878 28.4033L42.9088 29.1314L43.7573 28.7674C44.218 27.8165 43.8059 26.9145 43.5152 26.0972V26.0972ZM43.3938 22.8199C42.8921 23.6284 42.0694 24.8144 43.0302 25.7329V25.9757C43.2328 25.7222 43.2242 25.7366 43.2727 25.2476C43.4666 25.4869 43.4368 25.4131 43.5152 25.8544L43.7573 25.9757L44.4847 25.0048C44.3816 24.0061 43.9975 23.3136 43.3938 22.8199V22.8199ZM42.4243 21.9702L42.5453 22.2131L43.1514 22.6983L43.2727 21.9702H43.3938L43.6362 22.6983C44.7255 21.8175 44.1403 20.1532 42.9088 19.6641C42.5563 20.3798 42.3896 21.173 42.4243 21.9702V21.9702ZM41.6969 24.0336L42.3029 24.6404L42.4243 24.5192L41.9393 23.0627C42.3329 23.3532 42.4364 23.4886 42.7878 23.548L42.9088 22.8199C42.2936 21.9746 41.5425 21.4146 40.4848 20.9991C40.3732 22.1138 40.7015 23.6275 41.6969 24.0336V24.0336ZM42.4243 26.7041L42.9088 26.0972C42.4317 25.0988 41.7847 24.2055 40.7273 23.7908C40.4504 25.4866 40.7961 26.6942 41.8179 27.4322L41.9393 27.675H42.0604C42.0765 26.9188 41.9653 26.8346 41.8179 26.0972L42.4243 26.7041ZM41.5758 29.617L41.8179 29.7383L42.3029 29.3743C42.1777 28.1276 41.478 26.9701 40.4848 26.5825C40.0814 28.2433 40.5073 29.2675 40.9694 30.4667L41.2119 30.588C41.3876 29.8978 41.307 29.7337 41.2119 28.8886L41.5758 29.617ZM40.3634 35.2005L41.5758 34.715C41.7613 33.9414 42.152 32.688 41.3332 32.2872L39.8788 33.5013V34.8365L40.4848 34.3509L40.3634 35.2005ZM38.3029 37.6279L39.3939 37.3854C39.9999 36.9669 40.1669 36.1456 40.121 35.079H39.7574L38.424 35.6861L37.9393 36.657V37.2639L38.6665 36.7783L38.3029 37.6279ZM35.8785 39.8127H37.0909C37.6645 39.289 37.9523 38.4972 38.0604 37.5067H37.818L35.9999 38.1136L35.515 39.3272V39.4487L36.2424 39.0847L35.8785 39.8127ZM30.0605 44.4254L31.0301 44.6679C32.0098 44.2188 32.3349 43.7558 32.727 42.7261C32.4323 42.4903 32.1112 42.4663 31.5151 42.4833L29.6967 43.2113L28.9696 44.0611V44.1826C29.8349 44.1406 30.0692 43.9563 30.6666 43.697L30.0605 44.4254ZM36.8484 28.1606L33.5755 17.6005L30.303 28.039V28.1606H36.8484ZM29.0907 28.7674H38.1818V28.2819H29.0907V28.7674ZM41.0989 18.31C39.9398 13.9768 35.9583 10.2801 34.9304 9.46172C34.6847 9.26607 34.4677 9.34623 34.5673 9.46172C38.519 13.0371 39.9297 15.8248 40.857 18.4313C40.9212 18.4617 41.114 18.4666 41.0989 18.31V18.31ZM39.7574 18.3289C39.8557 20.1644 40.7634 20.9669 42.0604 21.6062H42.1817C42.0835 20.767 41.8286 20.6521 41.4543 20.1494L42.3029 20.635L42.5453 19.9069C41.9272 19.079 40.9724 18.5616 39.7574 18.3289V18.3289ZM45.0908 17.2364C44.314 17.9613 43.7929 18.5253 43.3938 19.6641L43.9998 20.271L44.2423 19.5426L44.4847 19.4213C44.2714 20.2484 44.2027 20.482 44.3636 21.2418L44.4847 21.4847H44.6058C45.3301 20.8703 46.1175 18.0794 45.0908 17.2364V17.2364Z" fill="#FFF467"/>
</g>
</g>
</svg>
