<?xml version="1.0" encoding="UTF-8"?>
<svg width="24px" height="24px" viewBox="0 0 24 24" version="1.1" xmlns="http://www.w3.org/2000/svg" xmlns:xlink="http://www.w3.org/1999/xlink">
    <title>back</title>
    <g id="页面-1" stroke="none" stroke-width="1" fill="none" fill-rule="evenodd">
        <g id="02西湖调解平台-登录页_1214" transform="translate(-840.000000, -611.000000)">
            <g id="编组-6" transform="translate(800.000000, 194.000000)">
                <g id="back" transform="translate(40.000000, 417.000000)">
                    <rect id="矩形" x="0" y="0" width="24" height="24"></rect>
                    <g id="编组-22" transform="translate(4.000000, 5.000000)" fill="#2F75F9">
                        <path d="M4.73427326,7.57340753 C5.06648256,7.92564041 5.06648256,8.36590068 4.73427326,8.71813356 C4.56811047,8.80628425 4.31892442,8.89431164 4.15287791,8.89431164 C3.98671512,8.89431164 3.73752907,8.80628425 3.65450581,8.63010616 L0.249156977,5.01950342 C-0.0830523256,4.66727055 -0.0830523256,4.22701027 0.249156977,3.8747774 L3.65450581,0.264174658 C3.98671512,-0.0880582192 4.40206395,-0.0880582192 4.73427326,0.264174658 C5.06648256,0.616407534 5.06648256,1.0567911 4.73427326,1.40902397 L2.34,3.947 L10.9457408,3.94715274 C13.7174104,3.94715274 16.0000291,6.20522818 16.0000291,8.94720919 C16.0000291,11.6890773 13.7174104,13.9471527 10.9457408,13.9471527 L1.73377683,13.9471527 C1.32610114,13.9471527 1.00002907,13.6246996 1.00002907,13.2214073 C1.00002907,12.818115 1.32610114,12.4956618 1.73377683,12.4956618 L10.9457408,12.4956618 C12.9022873,12.4956618 14.5327618,10.8826057 14.5327618,8.94720919 C14.5327618,7.01169983 12.9022873,5.39875654 10.9457408,5.39875654 L2.682,5.398 L4.73427326,7.57340753 Z" id="形状结合"></path>
                    </g>
                </g>
            </g>
        </g>
    </g>
</svg>