<svg width="24" height="24" viewBox="0 0 24 24" fill="none" xmlns="http://www.w3.org/2000/svg">
<g id="back">
<g id="&#231;&#188;&#150;&#231;&#187;&#132; 22">
<path id="&#229;&#189;&#162;&#231;&#138;&#182;&#231;&#187;&#147;&#229;&#144;&#136;" fill-rule="evenodd" clip-rule="evenodd" d="M7.65451 13.6301C7.73753 13.8063 7.98672 13.8943 8.15288 13.8943C8.31892 13.8943 8.56811 13.8063 8.73427 13.7181C9.06648 13.3659 9.06648 12.9256 8.73427 12.5734L6.68325 10.3988H14.9457C16.9023 10.3988 18.5328 12.0117 18.5328 13.9472C18.5328 15.8826 16.9023 17.4957 14.9457 17.4957H5.73378C5.3261 17.4957 5.00003 17.8181 5.00003 18.2214C5.00003 18.6247 5.3261 18.9472 5.73378 18.9472H14.9457C17.7174 18.9472 20 16.6891 20 13.9472C20 11.2052 17.7174 8.94715 14.9457 8.94715H6.34043L8.73427 6.40902C9.06648 6.05679 9.06648 5.61641 8.73427 5.26417C8.40206 4.91194 7.98672 4.91194 7.65451 5.26417L4.24916 8.87478C3.91695 9.22701 3.91695 9.66727 4.24916 10.0195L7.65451 13.6301Z" fill="#2F75F9"/>
</g>
</g>
</svg>
