<?xml version="1.0" encoding="iso-8859-1"?>
<svg width="26px" height="30px" viewBox="0 0 26 30" version="1.1" xmlns="http://www.w3.org/2000/svg" xmlns:xlink="http://www.w3.org/1999/xlink">
    <title>编组</title>
    <defs>
        <polygon id="path-1" points="0.602458333 0.0292016964 25.6024583 0.0292016964 25.6024583 29.0292017 0.602458333 29.0292017"></polygon>
    </defs>
    <g id="页面-1" stroke="none" stroke-width="1" fill="none" fill-rule="evenodd">
        <g id="02西湖调解平台-登录页_1214" transform="translate(-844.000000, -344.000000)">
            <g id="编组-6" transform="translate(800.000000, 194.000000)">
                <g id="编组-2" transform="translate(40.000000, 150.000000)">
                    <g id="编组" transform="translate(4.000000, 0.000000)">
                        <g>
                            <mask id="mask-2" fill="white">
                                <use xlink:href="#path-1"></use>
                            </mask>
                            <g id="Clip-3"></g>
                            <path d="M5.97504234,10.0651294 C5.97504234,6.08495199 9.18342059,2.84958999 13.1264662,2.84704173 C17.0696473,2.84958999 20.2779917,6.08495199 20.2779917,10.0651294 C20.2779917,14.0427586 17.0696473,17.2825628 13.1264662,17.2851455 C9.18250678,17.2825628 5.97504234,14.0427586 5.97504234,10.0651294 L5.97504234,10.0651294 Z M25.2486985,27.1542514 L25.2382405,26.9779048 C24.9688026,22.7799544 22.5392592,18.9786718 18.8829799,16.9827289 C20.9116664,15.2792507 22.0848599,12.741458 22.0810355,10.0651294 C22.0810355,5.08255556 18.0659344,1.0292017 13.1281923,1.0292017 L13.1239617,1.0292017 C8.18618581,1.0292017 4.17108474,5.08255556 4.17108474,10.0651294 C4.17108474,12.7512723 5.33212798,15.2558343 7.36995262,16.9827289 C3.71367331,18.9786718 1.28423137,22.7799544 1.01387972,26.9779048 L1.00436935,27.1533216 C1.00436935,27.1569374 1.00000338,27.1612419 1.00000338,27.1648921 L1.00000338,27.2063186 C1.00000338,27.6734768 1.37429218,28.0560604 1.8282853,28.0560604 C2.28955503,28.0560604 2.66353923,27.6756463 2.66353923,27.2063186 L2.66353923,27.1815591 L2.67822784,27.1815591 L2.69037809,27.0096548 C2.99102077,23.0161506 5.4647316,19.5252049 9.00918795,18.0846797 L9.14957586,18.1491094 L9.24660868,18.2072373 C10.3833176,18.7591425 11.5755656,19.0518482 12.8016246,19.0967871 C12.9098939,19.1020214 13.018197,19.1056716 13.1239617,19.1056716 L13.1281923,19.1056716 C13.2347355,19.1056716 13.3431402,19.1020214 13.4504956,19.0967871 C14.6834589,19.0529157 15.8941862,18.7497415 17.0062899,18.2064109 L17.1033566,18.1491094 L17.2437445,18.0846797 C20.7873886,19.5252049 23.2619117,23.0161506 23.5625205,27.0096548 L23.5747046,27.1815591 L23.5893594,27.1815591 L23.5893594,27.2063186 C23.5893594,27.671755 23.960196,28.0560604 24.4246472,28.0560604 C24.883277,28.0521347 25.2529291,27.6728226 25.2529291,27.2063186 L25.2529291,27.1648921 C25.2529291,27.1612419 25.2486985,27.1569374 25.2486985,27.1533216 L25.2486985,27.1542514 Z" id="Fill-2" fill="#424242" mask="url(#mask-2)"></path>
                        </g>
                        <path d="M11.2563965,19.6666667 L10.2019768,25.8800919 L13.5354735,29 L16.7353101,25.8687424 L15.9195663,19.6666667 L11.2563965,19.6666667 Z M11.9173561,25.3348729 L12.6216919,21.1876325 L14.5054195,21.1876325 L15.0542999,25.3488888 L13.5766428,26.8419254 L13.5766428,26.8427458 L11.9173561,25.3348729 Z" id="Fill-1" fill="#2F75F9"></path>
                    </g>
                </g>
            </g>
        </g>
    </g>
</svg>