<?xml version="1.0" encoding="UTF-8"?>
<svg width="26px" height="30px" viewBox="0 0 26 30" version="1.1" xmlns="http://www.w3.org/2000/svg" xmlns:xlink="http://www.w3.org/1999/xlink">
    <title>编组</title>
    <defs>
        <polygon id="path-1" points="9.23705556e-14 0 26 0 26 30 9.23705556e-14 30"></polygon>
    </defs>
    <g id="页面-1" stroke="none" stroke-width="1" fill="none" fill-rule="evenodd">
        <g id="02西湖调解平台-登录页_1214" transform="translate(-844.000000, -420.000000)">
            <g id="编组-6" transform="translate(800.000000, 194.000000)">
                <g id="编组-3" transform="translate(40.000000, 226.000000)">
                    <g id="编组" transform="translate(4.000000, 0.000000)">
                        <mask id="mask-2" fill="white">
                            <use xlink:href="#path-1"></use>
                        </mask>
                        <g id="Clip-3"></g>
                        <path d="M13.031784,0 C16.7470634,0 19.7588839,3.44738281 19.7588839,7.69995703 L19.758,10.017 L21.7599099,10.0174732 C23.5493935,10.0174732 25,11.1638997 25,13.0259778 L25,27 C25,28.8622537 23.5493935,30 21.7599099,30 L4.24034322,30 C2.45069089,30 1,28.8622537 1,27 L1,13.0259778 C1,11.1638997 2.45069089,10.0174732 4.24034322,10.0174732 L6.304,10.017 L6.30468414,7.69995703 C6.30468414,3.44738281 9.31650465,0 13.031784,0 Z M22.2236943,11.9499251 L3.88530318,11.9499251 C3.28868208,11.9499251 2.80513252,12.4530471 2.80513252,13.0736959 L2.80513252,27 C2.80513252,27.6208244 3.28868208,28.1239902 3.88530318,28.1239902 L22.2236943,28.1239902 C22.8201045,28.1239902 23.303654,27.6208244 23.303654,27 L23.303654,13.0736959 C23.303654,12.4530471 22.8201045,11.9499251 22.2236943,11.9499251 Z M13.031784,1.87311143 C10.3780559,1.87311143 8.02651525,4.66245312 8.02651525,7.69995703 L8.026,10.017 L18.095,10.017 L18.0956144,7.69995703 C18.0956144,4.66245313 15.6855496,1.87311143 13.031784,1.87311143 Z" id="形状结合" fill="#424242" mask="url(#mask-2)"></path>
                        <path d="M12,17.1000859 C12,16.4926367 12.3550032,16 12.9861228,16 C13.617421,16 14.0211495,16.4926367 14.0211495,17.1000859 L14.0211495,21.5 C14.0211495,22.1076211 13.617421,22.6000859 12.9861228,22.6000859 C12.3550032,22.6000859 12,22.1076211 12,21.5 L12,17.1000859 Z" id="Fill-3" fill="#2F75F9" mask="url(#mask-2)"></path>
                    </g>
                </g>
            </g>
        </g>
    </g>
</svg>