<svg width="200" height="112" viewBox="0 0 200 112" fill="none" xmlns="http://www.w3.org/2000/svg">
<g id="Group 33696">
<g id="pic_id_back">
<path id="Rectangle 74" d="M2 111.5C1.79569 111.5 1.60212 111.459 1.42595 111.386L1.23442 111.848C0.745542 111.646 0.354491 111.254 0.151761 110.766L0.613624 110.574C0.54057 110.398 0.5 110.204 0.5 110V109H0V107H0.5V105H0V103H0.5V101H0V99H0.5V97H0V95H0.5V93H0V91H0.5V89H0V87H0.5V85H0V83H0.5V81H0V79H0.5V77H0V75H0.5V73H0V71H0.5V69H0V67H0.5V65H0V63H0.5V61H0V59H0.5V57H0V55H0.5V53H0V51H0.5V49H0V47H0.5V45H0V43H0.5V41H0V39H0.5V37H0V35H0.5V33H0V31H0.5V29H0V27H0.5V25H0V23H0.5V21H0V19H0.5V17H0V15H0.5V13H0V11H0.5V9H0V7H0.5V5H0V3H0.5V2C0.5 1.79569 0.54057 1.60212 0.613624 1.42595L0.151761 1.23442C0.354492 0.745543 0.745544 0.354491 1.23442 0.151761L1.42595 0.613624C1.60212 0.54057 1.79569 0.5 2 0.5H3V0H5V0.5H7V0H9V0.5H11V0H13V0.5H15V0H17V0.5H19V0H21V0.5H23V0H25V0.5H27V0H29V0.5H31V0H33V0.5H35V0H37V0.5H39V0H41V0.5H43V0H45V0.5H47V0H49V0.5H51V0H53V0.5H55V0H57V0.5H59V0H61V0.5H63V0H65V0.5H67V0H69V0.5H71V0H73V0.5H75V0H77V0.5H79V0H81V0.5H83V0H85V0.5H87V0H89V0.5H91V0H93V0.5H95V0H97V0.5H99V0H101V0.5H103V0H105V0.5H107V0H109V0.5H111V0H113V0.5H115V0H117V0.5H119V0H121V0.5H123V0H125V0.5H127V0H129V0.5H131V0H133V0.5H135V0H137V0.5H139V0H141V0.5H143V0H145V0.5H147V0H149V0.5H151V0H153V0.5H155V0H157V0.5H159V0H161V0.5H163V0H165V0.5H167V0H169V0.5H171V0H173V0.5H175V0H177V0.5H179V0H181V0.5H183V0H185V0.5H187V0H189V0.5H191V0H193V0.5H195V0H197V0.5H198C198.204 0.5 198.398 0.54057 198.574 0.613624L198.766 0.151762C199.254 0.354494 199.646 0.745546 199.848 1.23443L199.386 1.42595C199.459 1.60212 199.5 1.79569 199.5 2V3H200V5H199.5V7H200V9H199.5V11H200V13H199.5V15H200V17H199.5V19H200V21H199.5V23H200V25H199.5V27H200V29H199.5V31H200V33H199.5V35H200V37H199.5V39H200V41H199.5V43H200V45H199.5V47H200V49H199.5V51H200V53H199.5V55H200V57H199.5V59H200V61H199.5V63H200V65H199.5V67H200V69H199.5V71H200V73H199.5V75H200V77H199.5V79H200V81H199.5V83H200V85H199.5V87H200V89H199.5V91H200V93H199.5V95H200V97H199.5V99H200V101H199.5V103H200V105H199.5V107H200V109H199.5V110C199.5 110.204 199.459 110.398 199.386 110.574L199.848 110.766C199.646 111.254 199.254 111.646 198.766 111.848L198.574 111.386C198.398 111.459 198.204 111.5 198 111.5H197V112H195V111.5H193V112H191V111.5H189V112H187V111.5H185V112H183V111.5H181V112H179V111.5H177V112H175V111.5H173V112H171V111.5H169V112H167V111.5H165V112H163V111.5H161V112H159V111.5H157V112H155V111.5H153V112H151V111.5H149V112H147V111.5H145V112H143V111.5H141V112H139V111.5H137V112H135V111.5H133V112H131V111.5H129V112H127V111.5H125V112H123V111.5H121V112H119V111.5H117V112H115V111.5H113V112H111V111.5H109V112H107V111.5H105V112H103V111.5H101V112H99V111.5H97V112H95V111.5H93V112H91V111.5H89V112H87V111.5H85V112H83V111.5H81V112H79V111.5H77V112H75V111.5H73V112H71V111.5H69V112H67V111.5H65V112H63V111.5H61V112H59V111.5H57V112H55V111.5H53V112H51V111.5H49V112H47V111.5H45V112H43V111.5H41V112H39V111.5H37V112H35V111.5H33V112H31V111.5H29V112H27V111.5H25V112H23V111.5H21V112H19V111.5H17V112H15V111.5H13V112H11V111.5H9V112H7V111.5H5V112H3V111.5H2Z" fill="#F4F7FD" stroke="#409EFF" stroke-dasharray="2 2"/>
<g id="Frame" opacity="0.1">
<g id="Group">
<g id="Group_2">
<path id="Vector" d="M16 37.2334C16 46.7368 23.6046 54.4404 32.9858 54.4404C42.3669 54.4404 49.9715 46.7368 49.9715 37.2334C49.9715 27.73 42.3669 20.0264 32.9858 20.0264C23.6046 20.0264 16 27.73 16 37.2334Z" fill="#F4B819"/>
</g>
<path id="Vector_2" d="M18.3174 37.2332C18.3174 42.5421 21.1121 47.447 25.6514 50.1015C30.1907 52.7559 35.7838 52.7559 40.3195 50.1015C44.8587 47.447 47.6535 42.5421 47.6535 37.2332C47.6535 29.0246 41.0849 22.374 32.9854 22.374C24.8824 22.374 18.3174 29.0246 18.3174 37.2332Z" fill="#CD2D24"/>
<path id="Vector_3" d="M39.5682 32.4911L40.2873 31.0341L40.6683 32.5849H42.1529L40.9567 33.3351C41.0528 33.8039 41.1489 34.3702 41.245 34.8859C40.8641 34.5108 40.4297 34.2295 40.0488 33.9446C39.5682 34.2259 39.0413 34.4134 38.6603 34.6984L39.1409 33.3351L38.0408 32.4875C38.5642 32.3973 39.0413 32.4911 39.5682 32.4911ZM37.5567 38.0849L36.072 37.7099L35.2603 38.9794L35.0681 37.5223C34.6871 37.3348 34.1602 37.241 33.6796 37.1472L35.0681 36.5846C35.0681 36.1157 34.9719 35.6433 34.9719 35.1275L35.9795 36.1626L37.368 35.7875L36.6488 36.9633C36.9835 37.2879 37.2718 37.663 37.5567 38.0849ZM31.9564 29.1514L32.9604 26.2842L33.9644 29.1514H36.9799L34.4913 30.8898V30.9836L35.3066 33.4757L33.0103 31.9249L30.7104 33.4757L31.5257 30.9836V30.8898L29.0335 29.1514H31.9564ZM28.5564 35.7839L29.9449 36.159L30.9489 35.1239C30.9489 35.5928 30.8528 36.0652 30.8528 36.581L32.2413 37.1436C31.7606 37.2374 31.2337 37.3312 30.8528 37.5223L30.6605 38.9794L29.7491 37.7099L28.3606 38.0849C28.649 37.7099 28.9837 37.3348 29.272 36.9092L28.5564 35.7839ZM25.2526 32.5849L25.5409 31.0341L26.3562 32.4911C26.8369 32.4911 27.3602 32.3973 27.8408 32.4911L26.7372 33.3351L27.2142 34.6984C26.8333 34.417 26.3064 34.2295 25.8258 33.9446C25.4448 34.2259 25.014 34.5072 24.6295 34.8859C24.7257 34.417 24.8218 33.8508 24.9179 33.3351L23.7217 32.5849H25.2526ZM28.6739 46.4522V45.2368C28.3642 45.1647 27.6522 44.9952 27.4991 44.8473C27.4421 44.7932 27.4741 44.7211 27.5667 44.7211C28.1933 44.7211 28.827 44.5912 29.4607 44.3316V44.3063C29.1261 44.2666 28.795 44.1765 28.4852 44.0358C28.4069 43.9997 28.4176 43.8843 28.503 43.8663C29.0406 43.7617 30.276 43.4263 30.8421 42.4453L30.8314 41.9764C30.8314 41.9151 30.8528 41.8538 30.8919 41.8105C30.9275 41.7673 30.9845 41.742 31.0415 41.742C31.0984 41.742 31.1518 41.7673 31.191 41.8105C31.2302 41.8574 31.2515 41.9151 31.2515 41.9764V42.2109H34.4878V41.9764C34.4878 41.9151 34.5091 41.8538 34.5483 41.8105C34.5839 41.7673 34.6408 41.742 34.6978 41.742C34.7548 41.742 34.8082 41.7673 34.8473 41.8105C34.8865 41.8574 34.9079 41.9151 34.9079 41.9764V42.4453C35.6057 43.264 36.9158 43.7581 37.4748 43.8663C37.5602 43.8843 37.5709 43.9997 37.4926 44.0358C37.2861 44.1296 36.955 44.2486 36.5206 44.3063V44.3929C37.4961 44.6129 38.048 44.7247 38.1761 44.7247C38.3648 44.7247 38.2972 44.7968 38.2438 44.8509C38.1334 44.9591 37.4997 45.0745 37.3074 45.1611V46.4558H42.0995V48.104H23.8819V46.4558L28.6739 46.4522Z" fill="#F4B819"/>
<path id="Vector_4" d="M20.4213 48.684L19.1111 53.1778C19.015 53.6502 19.2536 54.0722 19.6381 54.3066C19.8766 54.4473 20.0688 54.5411 20.3109 54.5879C20.4533 54.8693 20.7417 55.1037 21.0764 55.1506C21.1725 55.1506 21.2686 55.1975 21.3648 55.1975C21.5072 55.5725 21.8418 55.8539 22.2726 55.9043C22.415 55.9512 22.561 55.9512 22.7034 55.9981V56.045C22.8956 56.4201 23.2766 56.6545 23.7074 56.7014L25.9574 56.8889C26.3882 56.9358 26.819 56.7014 27.0575 56.3732H27.3922C27.8693 56.7014 28.446 56.7014 28.6846 56.7014H28.7807C29.0192 56.7952 29.3076 56.7952 29.596 56.7483H29.7384L31.4615 56.9358H31.6039C31.7962 56.9358 31.9386 56.8889 32.1308 56.8421C32.704 56.8889 33.1348 56.8889 33.7116 56.8421C33.9038 56.9358 34.1424 56.9827 34.3346 56.9358L36.0577 56.7483H36.1539C36.3924 56.7952 36.5847 56.7952 36.8232 56.7014H37.0617C37.3501 56.7014 37.9233 56.6545 38.4039 56.3732H38.7386C38.9771 56.7014 39.4079 56.9358 39.8387 56.8889L41.9926 56.7014C42.281 56.6942 42.5516 56.5752 42.7581 56.3732C42.8542 56.2794 42.9503 56.1388 43.0464 56.045C43.1888 55.9981 43.3811 55.9981 43.5235 55.9512C43.9543 55.8575 44.2889 55.5761 44.4349 55.2443C44.531 55.2443 44.6272 55.1975 44.7233 55.1975C45.058 55.1037 45.3463 54.9161 45.4887 54.6348C45.681 54.5879 45.9195 54.4942 46.1581 54.3535C46.539 54.1191 46.7313 53.6466 46.685 53.2246L45.6383 48.72C45.6027 48.5722 45.4994 48.4495 45.3606 48.3918C45.2217 48.3341 45.0651 48.3485 44.9369 48.4315C39.9847 51.6414 35.9687 53.2391 32.8892 53.2246C29.806 53.2102 25.8827 51.6089 21.1191 48.4243C20.9981 48.3413 20.8414 48.3233 20.7061 48.3738C20.5673 48.4279 20.464 48.5397 20.4213 48.684Z" fill="#CD2D24"/>
<path id="Vector_5" d="M35.6312 52.6656H35.5991C35.4567 52.6656 35.3321 52.5755 35.2858 52.4384C35.2502 52.3302 35.204 52.222 35.1506 52.121C35.0829 51.9948 35.1078 51.8397 35.2111 51.7387L35.236 51.7135C35.2965 51.6522 35.3321 51.5692 35.3321 51.4827C35.3321 51.3961 35.2965 51.3132 35.236 51.2519L35.0153 51.0319C34.8835 50.9056 34.677 50.9056 34.5453 51.0319L34.5204 51.0571C34.4171 51.1581 34.2605 51.1797 34.1323 51.1148C34.0291 51.0643 33.9187 51.0174 33.8084 50.985C33.6731 50.9453 33.5769 50.8191 33.5769 50.6748V50.6459C33.5734 50.4656 33.4239 50.3177 33.2458 50.3214H32.929C32.7474 50.3177 32.6014 50.4656 32.5979 50.6459V50.6784C32.5979 50.8227 32.5018 50.9489 32.3665 50.9886C32.2561 51.0246 32.1457 51.0679 32.0425 51.1184C31.9143 51.1833 31.7577 51.1581 31.6544 51.0607L31.6295 51.0391C31.4978 50.9128 31.2913 50.9128 31.1596 51.0391L30.9388 51.2591C30.8783 51.3204 30.8427 51.4033 30.8427 51.4899C30.8427 51.5764 30.8783 51.6594 30.9388 51.7207L30.9637 51.746C31.0634 51.8469 31.0884 52.002 31.0207 52.1246C30.9673 52.2256 30.9246 52.3338 30.889 52.442C30.8427 52.5791 30.7145 52.6692 30.5721 52.6692H30.5401C30.4546 52.6692 30.3692 52.7017 30.3087 52.763C30.2481 52.8243 30.2125 52.9073 30.209 52.9938V53.304C30.209 53.4843 30.3585 53.6286 30.5401 53.6286H30.5721C30.7181 53.6286 30.8427 53.7224 30.889 53.8558C30.9246 53.964 30.9709 54.0722 31.0243 54.1732C31.0919 54.2994 31.067 54.4545 30.9637 54.5555L30.9388 54.5807C30.8783 54.6421 30.8427 54.725 30.8427 54.8116C30.8427 54.8981 30.8783 54.9811 30.9388 55.0424L31.1596 55.2588C31.2913 55.385 31.4978 55.385 31.6295 55.2588L31.6544 55.2335C31.7577 55.1362 31.9143 55.1109 32.0425 55.1758C32.1457 55.2263 32.2561 55.2696 32.3629 55.3057C32.4982 55.3453 32.5908 55.4716 32.5943 55.6158V55.6483C32.5943 55.8286 32.7439 55.9729 32.9254 55.9729H33.2387C33.4203 55.9765 33.5663 55.8286 33.5698 55.6483V55.6158C33.5734 55.4716 33.6659 55.3453 33.8012 55.3057C33.9116 55.2696 34.022 55.2263 34.1252 55.1758C34.2534 55.1109 34.41 55.1325 34.5133 55.2335L34.5382 55.2552C34.6699 55.3814 34.8764 55.3814 35.0046 55.2552L35.2289 55.0352C35.2894 54.9739 35.325 54.8909 35.325 54.8043C35.325 54.7178 35.2894 54.6348 35.2289 54.5735L35.204 54.5483C35.1043 54.4473 35.0793 54.2922 35.147 54.166C35.2004 54.065 35.2431 53.9568 35.2787 53.8486C35.325 53.7116 35.4532 53.6214 35.592 53.6214H35.6241C35.8021 53.625 35.9516 53.4771 35.9552 53.2968V52.9866C35.9552 52.9001 35.9196 52.8135 35.8555 52.7558C35.7985 52.6981 35.7166 52.6656 35.6312 52.6656Z" fill="#F4B819"/>
<path id="Vector_6" d="M31.8184 53.1896C31.8184 53.8388 32.3381 54.3617 32.9754 54.3617C33.6163 54.3617 34.1325 53.8352 34.1325 53.1896C34.1325 52.7712 33.9118 52.3817 33.5522 52.1725C33.1926 51.9633 32.7511 51.9633 32.3951 52.1725C32.0391 52.3817 31.8184 52.7712 31.8184 53.1896Z" fill="#CD2D24"/>
<path id="Vector_7" d="M27.0615 56.3521V53.8996C27.0615 53.7409 27.1434 53.5895 27.2751 53.5029C27.4069 53.4163 27.5742 53.4055 27.7202 53.4704C29.0054 54.0655 30.2906 54.1377 31.5652 53.6868C31.0561 54.9636 29.5572 55.8508 27.0615 56.3521ZM38.7034 56.4026V53.8996C38.7034 53.7409 38.6215 53.5931 38.4898 53.5065C38.3581 53.42 38.1907 53.4091 38.0483 53.4741C36.7738 54.0619 35.4957 54.1268 34.2211 53.676C34.7302 54.9455 36.2219 55.8544 38.7034 56.4026Z" fill="#F4B819"/>
<path id="Vector_8" d="M29.9209 52.8031C31.2311 53.0231 32.2564 53.1565 32.9934 53.1962C33.7339 53.2359 34.8874 53.0627 36.461 52.666L36.0801 53.9752C34.3249 53.9752 33.296 53.8418 32.9934 53.5785C32.7335 53.7913 31.7117 53.9211 29.9209 53.9752V52.8031Z" fill="#CD2D24"/>
</g>
</g>
<path id="&#228;&#184;&#173;&#229;&#141;&#142;&#228;&#186;&#186;&#230;&#176;&#145;&#229;&#133;&#177;&#229;&#146;&#140;&#229;&#155;&#189; &#229;&#177;&#133; &#230;&#176;&#145; &#232;&#186;&#171; &#228;&#187;&#189; &#232;&#175;&#129;" d="M91.952 32.028V29.124H95.072V32.028H91.952ZM87.68 32.028V29.124H90.788V32.028H87.68ZM91.952 28.032V25.944H90.788V28.032H86.564V33.828H87.68V33.12H90.788V36.936H91.952V33.12H95.072V33.768H96.236V28.032H91.952ZM104.912 30.216C104.912 31.332 105.236 31.644 106.508 31.644H108.44C109.472 31.644 109.772 31.248 109.892 29.82C109.604 29.76 109.16 29.592 108.908 29.412C108.86 30.48 108.776 30.684 108.344 30.684H106.64C106.124 30.684 106.028 30.612 106.028 30.216V29.088C107.36 28.632 108.62 28.104 109.592 27.492L108.776 26.628C108.068 27.12 107.096 27.588 106.028 28.008V26.1H104.912V28.416C104.24 28.632 103.544 28.836 102.872 29.016C103.028 29.244 103.22 29.64 103.28 29.892C103.82 29.76 104.36 29.604 104.912 29.436V30.216ZM101.216 31.956H102.32V27.828C102.74 27.336 103.148 26.808 103.46 26.28L102.416 25.908C101.66 27.168 100.388 28.38 99.14 29.148C99.368 29.328 99.764 29.772 99.944 29.976C100.364 29.7 100.796 29.34 101.216 28.968V31.956ZM109.964 33.3H105.188V31.932H104.012V33.3H99.248V34.38H104.012V36.948H105.188V34.38H109.964V33.3ZM117.104 25.968C117.068 27.888 117.2 33.48 112.292 36.024C112.664 36.264 113.024 36.624 113.216 36.912C115.928 35.412 117.2 32.988 117.8 30.732C118.436 32.88 119.744 35.52 122.564 36.852C122.72 36.552 123.056 36.156 123.38 35.904C119.192 34.044 118.46 29.256 118.292 27.756C118.352 27.048 118.364 26.424 118.376 25.968H117.104ZM127.964 31.764V30.144H130.88C130.916 30.696 130.988 31.248 131.096 31.764H127.964ZM134.24 27.552V29.112H127.964V27.552H134.24ZM136.232 32.808V31.764H132.26C132.152 31.26 132.068 30.696 132.032 30.144H135.368V26.52H126.8V35.076C126.8 35.58 126.488 35.88 126.236 36.012C126.428 36.24 126.668 36.72 126.752 37.02C127.076 36.828 127.58 36.708 130.94 35.88C130.88 35.628 130.82 35.136 130.82 34.824L127.964 35.472V32.808H131.336C132.02 35.148 133.352 36.816 134.924 36.816C135.86 36.816 136.292 36.372 136.46 34.524C136.16 34.428 135.74 34.212 135.488 33.984C135.428 35.208 135.296 35.712 134.972 35.712C134.084 35.724 133.136 34.536 132.548 32.808H136.232ZM142.04 33.696C141.392 34.548 140.096 35.556 138.944 36.168C139.208 36.36 139.616 36.72 139.844 36.948C141.032 36.276 142.352 35.172 143.216 34.152L142.04 33.696ZM145.148 34.236C146.24 35.064 147.68 36.24 148.364 36.936L149.444 36.288C148.676 35.556 147.212 34.44 146.132 33.66L145.148 34.236ZM142.652 29.424H145.748V32.016H142.652V29.424ZM146.912 32.016V29.424H149.216V28.344H146.912V26.028H145.748V28.344H142.652V26.028H141.5V28.344H139.28V29.424H141.5V32.016H138.824V33.108H149.612V32.016H146.912ZM155.384 27.444C156.08 27.312 156.74 27.132 157.304 26.916L156.56 26.052C155.492 26.472 153.68 26.844 152.108 27.06C152.228 27.312 152.372 27.684 152.42 27.924C153.008 27.852 153.644 27.78 154.268 27.672V29.46H152.036V30.492H153.992C153.488 31.908 152.624 33.444 151.748 34.32C151.952 34.608 152.216 35.04 152.336 35.352C153.044 34.596 153.728 33.372 154.268 32.1V36.924H155.384V32.04C155.852 32.676 156.404 33.444 156.644 33.876L157.316 32.964C157.04 32.604 155.852 31.236 155.384 30.768V30.492H157.316V29.46H155.384V27.444ZM158.78 34.356V28.116H161.12V34.356H158.78ZM157.7 27.048V36.396H158.78V35.424H161.12V36.312H162.26V27.048H157.7ZM172.736 33.48L173.468 33.036C173.24 32.7 172.76 32.16 172.352 31.788L171.644 32.172C172.04 32.568 172.496 33.108 172.712 33.48H171.056V31.704H173.3V30.756H171.056V29.304H173.564V28.32H167.576V29.304H170.012V30.756H167.888V31.704H170.012V33.48H167.408V34.404H173.804V33.48H172.736ZM166.76 35.328V27.48H174.368V35.328H166.76ZM165.632 26.448V36.948H166.76V36.36H174.368V36.948H175.556V26.448H165.632ZM87.4289 49.938C87.4429 49.616 87.4429 49.308 87.4429 49.014V48.566H91.6009V49.938H87.4289ZM95.1569 46.116V47.418H87.4429V46.116H95.1569ZM94.9469 55.51H89.5849V53.676H94.9469V55.51ZM97.2289 51.114V49.938H92.9029V48.566H96.4729V44.968H86.1269V49.014C86.1269 51.24 86.0149 54.306 84.5729 56.448C84.9089 56.574 85.4829 56.924 85.7349 57.134C86.8269 55.482 87.2329 53.172 87.3729 51.114H91.6009V52.528H88.3389V57.092H89.5849V56.644H94.9469V57.078H96.2349V52.528H92.9029V51.114H97.2289ZM107.513 51.058V49.168H110.915C110.957 49.812 111.041 50.456 111.167 51.058H107.513ZM114.835 46.144V47.964H107.513V46.144H114.835ZM117.159 52.276V51.058H112.525C112.399 50.47 112.301 49.812 112.259 49.168H116.151V44.94H106.155V54.922C106.155 55.51 105.791 55.86 105.497 56.014C105.721 56.28 106.001 56.84 106.099 57.19C106.477 56.966 107.065 56.826 110.985 55.86C110.915 55.566 110.845 54.992 110.845 54.628L107.513 55.384V52.276H111.447C112.245 55.006 113.799 56.952 115.633 56.952C116.725 56.952 117.229 56.434 117.425 54.278C117.075 54.166 116.585 53.914 116.291 53.648C116.221 55.076 116.067 55.664 115.689 55.664C114.653 55.678 113.547 54.292 112.861 52.276H117.159ZM128.214 51.912V50.778H133.618V51.688L133.352 51.912H128.214ZM133.618 46.732V47.754H128.214V46.732H133.618ZM128.214 48.72H133.618V49.798H128.214V48.72ZM136.04 48.916C135.69 49.448 135.298 49.952 134.878 50.428V45.598H131.182C131.392 45.234 131.616 44.814 131.812 44.422L130.3 44.226C130.188 44.618 129.992 45.136 129.81 45.598H126.926V51.912H125.12V53.06H131.812C129.754 54.432 127.304 55.454 124.672 56.14C124.91 56.406 125.302 56.924 125.456 57.218C128.48 56.322 131.294 55.02 133.618 53.2V55.398C133.618 55.664 133.52 55.762 133.226 55.776C132.946 55.776 131.924 55.79 130.916 55.748C131.098 56.098 131.294 56.686 131.364 57.05C132.722 57.05 133.618 57.022 134.164 56.798C134.696 56.602 134.878 56.196 134.878 55.412V52.136C135.746 51.324 136.516 50.428 137.174 49.448L136.04 48.916ZM147.487 44.324C146.787 46.368 145.625 48.398 144.393 49.714C144.617 50.008 144.995 50.708 145.107 51.03C145.457 50.638 145.793 50.204 146.129 49.742V57.106H147.417V47.614C147.907 46.662 148.355 45.682 148.705 44.688L147.487 44.324ZM153.437 44.758C153.899 46.886 154.529 48.384 155.593 49.616H149.853C150.875 48.342 151.631 46.704 152.135 44.912L150.861 44.632C150.329 46.718 149.307 48.552 147.879 49.658C148.131 49.924 148.523 50.526 148.677 50.82C148.985 50.554 149.265 50.274 149.545 49.966V50.834H151.099C150.847 53.41 150.035 55.174 148.117 56.168C148.397 56.392 148.845 56.896 148.999 57.148C151.099 55.902 152.051 53.914 152.387 50.834H154.599C154.445 54.082 154.263 55.356 153.997 55.678C153.857 55.832 153.731 55.86 153.521 55.86C153.269 55.86 152.723 55.86 152.121 55.804C152.317 56.14 152.457 56.644 152.471 56.994C153.129 57.022 153.745 57.036 154.123 56.98C154.543 56.924 154.837 56.812 155.103 56.462C155.537 55.944 155.705 54.404 155.901 50.176C155.901 50.12 155.915 50.05 155.915 49.966C156.153 50.218 156.405 50.456 156.685 50.68C156.867 50.302 157.245 49.868 157.581 49.588C156.013 48.398 155.173 46.984 154.613 44.534L153.437 44.758ZM168.327 46.62C167.851 46.046 166.857 45.164 166.115 44.562L165.261 45.346C166.017 46.004 166.983 46.914 167.417 47.516L168.327 46.62ZM167.683 54.026V48.566H164.603V49.812H166.423V54.278C166.423 55.062 165.919 55.65 165.597 55.916C165.835 56.098 166.255 56.518 166.409 56.784C166.633 56.462 167.039 56.126 169.461 54.138C169.307 53.872 169.069 53.354 168.957 52.99L167.683 54.026ZM174.235 55.342V51.072H176.783V49.868H174.235V46.452H177.049V45.234H169.279V46.452H172.905V55.342H171.267V48.846H169.979V55.342H168.859V56.56H177.315V55.342H174.235Z" fill="#DFEAFF"/>
<rect id="Rectangle 104" x="106" y="71" width="78" height="6" rx="1" fill="#DFEAFF"/>
<rect id="Rectangle 106" x="106" y="87" width="78" height="6" rx="1" fill="#DFEAFF"/>
</g>
</g>
</svg>
