<svg width="200" height="112" viewBox="0 0 200 112" fill="none" xmlns="http://www.w3.org/2000/svg">
<g id="Group 33695">
<g id="pic_id_front">
<path id="Rectangle 74" d="M2 111.5C1.79569 111.5 1.60212 111.459 1.42595 111.386L1.23442 111.848C0.745542 111.646 0.354491 111.254 0.151761 110.766L0.613624 110.574C0.54057 110.398 0.5 110.204 0.5 110V109H0V107H0.5V105H0V103H0.5V101H0V99H0.5V97H0V95H0.5V93H0V91H0.5V89H0V87H0.5V85H0V83H0.5V81H0V79H0.5V77H0V75H0.5V73H0V71H0.5V69H0V67H0.5V65H0V63H0.5V61H0V59H0.5V57H0V55H0.5V53H0V51H0.5V49H0V47H0.5V45H0V43H0.5V41H0V39H0.5V37H0V35H0.5V33H0V31H0.5V29H0V27H0.5V25H0V23H0.5V21H0V19H0.5V17H0V15H0.5V13H0V11H0.5V9H0V7H0.5V5H0V3H0.5V2C0.5 1.79569 0.54057 1.60212 0.613624 1.42595L0.151761 1.23442C0.354492 0.745543 0.745544 0.354491 1.23442 0.151761L1.42595 0.613624C1.60212 0.54057 1.79569 0.5 2 0.5H3V0H5V0.5H7V0H9V0.5H11V0H13V0.5H15V0H17V0.5H19V0H21V0.5H23V0H25V0.5H27V0H29V0.5H31V0H33V0.5H35V0H37V0.5H39V0H41V0.5H43V0H45V0.5H47V0H49V0.5H51V0H53V0.5H55V0H57V0.5H59V0H61V0.5H63V0H65V0.5H67V0H69V0.5H71V0H73V0.5H75V0H77V0.5H79V0H81V0.5H83V0H85V0.5H87V0H89V0.5H91V0H93V0.5H95V0H97V0.5H99V0H101V0.5H103V0H105V0.5H107V0H109V0.5H111V0H113V0.5H115V0H117V0.5H119V0H121V0.5H123V0H125V0.5H127V0H129V0.5H131V0H133V0.5H135V0H137V0.5H139V0H141V0.5H143V0H145V0.5H147V0H149V0.5H151V0H153V0.5H155V0H157V0.5H159V0H161V0.5H163V0H165V0.5H167V0H169V0.5H171V0H173V0.5H175V0H177V0.5H179V0H181V0.5H183V0H185V0.5H187V0H189V0.5H191V0H193V0.5H195V0H197V0.5H198C198.204 0.5 198.398 0.54057 198.574 0.613624L198.766 0.151762C199.254 0.354494 199.646 0.745546 199.848 1.23443L199.386 1.42595C199.459 1.60212 199.5 1.79569 199.5 2V3H200V5H199.5V7H200V9H199.5V11H200V13H199.5V15H200V17H199.5V19H200V21H199.5V23H200V25H199.5V27H200V29H199.5V31H200V33H199.5V35H200V37H199.5V39H200V41H199.5V43H200V45H199.5V47H200V49H199.5V51H200V53H199.5V55H200V57H199.5V59H200V61H199.5V63H200V65H199.5V67H200V69H199.5V71H200V73H199.5V75H200V77H199.5V79H200V81H199.5V83H200V85H199.5V87H200V89H199.5V91H200V93H199.5V95H200V97H199.5V99H200V101H199.5V103H200V105H199.5V107H200V109H199.5V110C199.5 110.204 199.459 110.398 199.386 110.574L199.848 110.766C199.646 111.254 199.254 111.646 198.766 111.848L198.574 111.386C198.398 111.459 198.204 111.5 198 111.5H197V112H195V111.5H193V112H191V111.5H189V112H187V111.5H185V112H183V111.5H181V112H179V111.5H177V112H175V111.5H173V112H171V111.5H169V112H167V111.5H165V112H163V111.5H161V112H159V111.5H157V112H155V111.5H153V112H151V111.5H149V112H147V111.5H145V112H143V111.5H141V112H139V111.5H137V112H135V111.5H133V112H131V111.5H129V112H127V111.5H125V112H123V111.5H121V112H119V111.5H117V112H115V111.5H113V112H111V111.5H109V112H107V111.5H105V112H103V111.5H101V112H99V111.5H97V112H95V111.5H93V112H91V111.5H89V112H87V111.5H85V112H83V111.5H81V112H79V111.5H77V112H75V111.5H73V112H71V111.5H69V112H67V111.5H65V112H63V111.5H61V112H59V111.5H57V112H55V111.5H53V112H51V111.5H49V112H47V111.5H45V112H43V111.5H41V112H39V111.5H37V112H35V111.5H33V112H31V111.5H29V112H27V111.5H25V112H23V111.5H21V112H19V111.5H17V112H15V111.5H13V112H11V111.5H9V112H7V111.5H5V112H3V111.5H2Z" fill="#F4F7FD" stroke="#409EFF" stroke-dasharray="2 2"/>
<g id="Frame" opacity="0.1">
<g id="Group">
<path id="Vector" d="M138.596 63.0626C138.596 63.0626 147.015 61.4063 155.45 60.5782C163.886 59.7501 172.404 63.0626 172.404 63.0626C175.289 64.3048 179 66.0277 179 69.6876V73.0001H132V69.6876C132 66.0277 134.061 64.3048 138.596 63.0626Z" fill="#0078FF"/>
<path id="Vector_2" d="M150.14 54.7812H160.859V63.8906H150.14V54.7812ZM168.281 40.7031C170.102 40.7031 171.579 42.186 171.579 44.0156C171.579 45.8453 170.102 47.3281 168.281 47.3281C166.459 47.3281 164.982 45.8453 164.982 44.0156C164.982 42.186 166.459 40.7031 168.281 40.7031ZM142.719 40.7031C144.541 40.7031 146.017 42.186 146.017 44.0156C146.017 45.8453 144.54 47.3281 142.719 47.3281C140.897 47.3281 139.421 45.8453 139.421 44.0156C139.421 42.186 140.897 40.7031 142.719 40.7031Z" fill="#F2C2AB"/>
<path id="Vector_3" d="M155.5 27.4531C162.559 27.4531 168.281 33.2002 168.281 40.2891V45.2578C168.281 52.3467 160.86 58.0937 155.5 58.0937C149.877 58.0937 142.72 52.3467 142.72 45.2578V40.2891C142.72 33.2002 148.442 27.4531 155.5 27.4531Z" fill="#FFD8C4"/>
<path id="Vector_4" d="M148.491 21.6562C148.491 21.6562 143.906 24.0908 141.895 23.3125C142.387 24.1775 142.938 25.0076 143.544 25.7969L139.421 27.4531C139.421 27.4531 141.795 30.9228 141.07 33.25C140.245 35.7842 150.017 27.9332 150.14 25.7969C150.264 23.6599 148.491 21.6562 148.491 21.6562Z" fill="#343438"/>
<path id="Vector_5" d="M170.755 35.3203C170.755 26.8592 163.925 20 155.5 20C147.073 20 141.021 26.898 140.246 35.3203C140.073 37.2418 142.307 44.4297 142.307 44.4297C142.307 44.4297 143.206 36.2811 146.018 35.7344C150.355 34.9062 152.614 37.3906 155.913 37.3906C159.598 37.3906 160.926 34.9062 164.158 34.9062C167.391 34.9062 168.281 40.3059 168.281 41.5312C168.281 42.7566 170.755 43.784 170.755 35.3203Z" fill="#343438"/>
<path id="Vector_6" d="M160.86 58.0938L155.088 63.8906L159.211 68.8594L164.158 60.5781L160.86 58.0938Z" fill="#F2F8FF"/>
<path id="Vector_7" d="M150.14 58.0938L155.912 63.8906L151.789 68.8594L146.842 60.5781L150.14 58.0938Z" fill="#F2F8FF"/>
</g>
</g>
<rect id="Rectangle 101" x="16" y="33" width="10" height="6" rx="1" fill="#DFEAFF"/>
<rect id="Rectangle 103" x="16" y="49" width="10" height="6" rx="1" fill="#DFEAFF"/>
<rect id="Rectangle 105" x="16" y="65" width="10" height="6" rx="1" fill="#DFEAFF"/>
<rect id="Rectangle 102" x="31" y="33" width="46" height="6" rx="1" fill="#DFEAFF"/>
<rect id="Rectangle 104" x="31" y="49" width="78" height="6" rx="1" fill="#DFEAFF"/>
<rect id="Rectangle 106" x="31" y="65" width="78" height="6" rx="1" fill="#DFEAFF"/>
</g>
</g>
</svg>
